<svg width="17" height="13" viewBox="0 0 17 13" fill="none" xmlns="http://www.w3.org/2000/svg">
<g clip-path="url(#clip0_201_749)">
<path d="M5.6875 6.5C7.48262 6.5 8.9375 5.04512 8.9375 3.25C8.9375 1.45488 7.48262 0 5.6875 0C3.89238 0 2.4375 1.45488 2.4375 3.25C2.4375 5.04512 3.89238 6.5 5.6875 6.5ZM7.9625 7.3125H7.53848C6.9748 7.57148 6.34766 7.71875 5.6875 7.71875C5.02734 7.71875 4.40273 7.57148 3.83652 7.3125H3.4125C1.52852 7.3125 0 8.84102 0 10.725V11.7812C0 12.4541 0.545898 13 1.21875 13H8.19863C8.1377 12.8273 8.1123 12.6445 8.13262 12.4592L8.30527 10.9129L8.33574 10.6311L8.53633 10.4305L10.499 8.46777C9.87695 7.76445 8.97559 7.3125 7.9625 7.3125V7.3125ZM9.1127 11.0018L8.94004 12.5506C8.91211 12.8096 9.13047 13.0279 9.38691 12.9975L10.9332 12.8248L14.4346 9.32344L12.6141 7.50293L9.1127 11.0018V11.0018ZM16.0723 6.82754L15.11 5.86523C14.8738 5.6291 14.4879 5.6291 14.2518 5.86523L13.292 6.825L13.1879 6.9291L15.0109 8.74961L16.0723 7.68828C16.3084 7.44961 16.3084 7.06621 16.0723 6.82754V6.82754Z" fill="#404040"/>
</g>
<defs>
<clipPath id="clip0_201_749">
<rect width="16.25" height="13" fill="white"/>
</clipPath>
</defs>
</svg>
