<svg width="15" height="15" viewBox="0 0 15 15" fill="none" xmlns="http://www.w3.org/2000/svg">
<path d="M0.9375 5.15625C0.9375 4.53465 1.18443 3.93851 1.62397 3.49897C2.06351 3.05943 2.65965 2.8125 3.28125 2.8125H11.7188C12.3404 2.8125 12.9365 3.05943 13.376 3.49897C13.8156 3.93851 14.0625 4.53465 14.0625 5.15625V8.90625C14.0625 9.21404 14.0019 9.51881 13.8841 9.80316C13.7663 10.0875 13.5937 10.3459 13.376 10.5635C13.1584 10.7812 12.9 10.9538 12.6157 11.0716C12.3313 11.1894 12.0265 11.25 11.7188 11.25H3.28125C2.65965 11.25 2.06351 11.0031 1.62397 10.5635C1.18443 10.124 0.9375 9.52785 0.9375 8.90625V5.15625ZM4.82437 5.76187L4.21875 6.36844L3.61313 5.76187C3.56954 5.71829 3.5178 5.68372 3.46086 5.66013C3.40392 5.63655 3.34288 5.62441 3.28125 5.62441C3.21962 5.62441 3.15858 5.63655 3.10164 5.66013C3.0447 5.68372 2.99296 5.71829 2.94937 5.76187C2.90579 5.80546 2.87122 5.8572 2.84763 5.91414C2.82405 5.97108 2.81191 6.03212 2.81191 6.09375C2.81191 6.15538 2.82405 6.21642 2.84763 6.27336C2.87122 6.3303 2.90579 6.38204 2.94937 6.42563L3.55594 7.03125L2.94937 7.63687C2.90579 7.68046 2.87122 7.7322 2.84763 7.78914C2.82405 7.84608 2.81191 7.90712 2.81191 7.96875C2.81191 8.03038 2.82405 8.09142 2.84763 8.14836C2.87122 8.2053 2.90579 8.25704 2.94937 8.30063C3.03739 8.38864 3.15677 8.43809 3.28125 8.43809C3.34288 8.43809 3.40392 8.42595 3.46086 8.40237C3.5178 8.37878 3.56954 8.34421 3.61313 8.30063L4.21875 7.69406L4.82437 8.30063C4.86796 8.34421 4.9197 8.37878 4.97664 8.40237C5.03358 8.42595 5.09462 8.43809 5.15625 8.43809C5.21788 8.43809 5.27892 8.42595 5.33586 8.40237C5.3928 8.37878 5.44454 8.34421 5.48813 8.30063C5.53171 8.25704 5.56628 8.2053 5.58987 8.14836C5.61345 8.09142 5.62559 8.03038 5.62559 7.96875C5.62559 7.90712 5.61345 7.84608 5.58987 7.78914C5.56628 7.7322 5.53171 7.68046 5.48813 7.63687L4.88156 7.03125L5.48813 6.42563C5.53171 6.38204 5.56628 6.3303 5.58987 6.27336C5.61345 6.21642 5.62559 6.15538 5.62559 6.09375C5.62559 6.03212 5.61345 5.97108 5.58987 5.91414C5.56628 5.8572 5.53171 5.80546 5.48813 5.76187C5.44454 5.71829 5.3928 5.68372 5.33586 5.66013C5.27892 5.63655 5.21788 5.62441 5.15625 5.62441C5.09462 5.62441 5.03358 5.63655 4.97664 5.66013C4.9197 5.68372 4.86796 5.71829 4.82437 5.76187V5.76187ZM8.57437 5.76187L7.96875 6.36844L7.36313 5.76187C7.31954 5.71829 7.2678 5.68372 7.21086 5.66013C7.15392 5.63655 7.09288 5.62441 7.03125 5.62441C6.96962 5.62441 6.90858 5.63655 6.85164 5.66013C6.7947 5.68372 6.74296 5.71829 6.69937 5.76187C6.65579 5.80546 6.62122 5.8572 6.59763 5.91414C6.57405 5.97108 6.56191 6.03212 6.56191 6.09375C6.56191 6.15538 6.57405 6.21642 6.59763 6.27336C6.62122 6.3303 6.65579 6.38204 6.69937 6.42563L7.30594 7.03125L6.69937 7.63687C6.65579 7.68046 6.62122 7.7322 6.59763 7.78914C6.57405 7.84608 6.56191 7.90712 6.56191 7.96875C6.56191 8.03038 6.57405 8.09142 6.59763 8.14836C6.62122 8.2053 6.65579 8.25704 6.69937 8.30063C6.78739 8.38864 6.90677 8.43809 7.03125 8.43809C7.09288 8.43809 7.15392 8.42595 7.21086 8.40237C7.2678 8.37878 7.31954 8.34421 7.36313 8.30063L7.96875 7.69406L8.57437 8.30063C8.66239 8.38864 8.78177 8.43809 8.90625 8.43809C9.03073 8.43809 9.15011 8.38864 9.23813 8.30063C9.32614 8.21261 9.37559 8.09323 9.37559 7.96875C9.37559 7.84427 9.32614 7.72489 9.23813 7.63687L8.63156 7.03125L9.23813 6.42563C9.32614 6.33761 9.37559 6.21823 9.37559 6.09375C9.37559 5.96927 9.32614 5.84989 9.23813 5.76187C9.15011 5.67386 9.03073 5.62441 8.90625 5.62441C8.78177 5.62441 8.66239 5.67386 8.57437 5.76187V5.76187ZM10.3125 7.96875C10.3125 8.09307 10.3619 8.2123 10.4498 8.30021C10.5377 8.38811 10.6569 8.4375 10.7812 8.4375H11.7188C11.8431 8.4375 11.9623 8.38811 12.0502 8.30021C12.1381 8.2123 12.1875 8.09307 12.1875 7.96875C12.1875 7.84443 12.1381 7.7252 12.0502 7.63729C11.9623 7.54939 11.8431 7.5 11.7188 7.5H10.7812C10.6569 7.5 10.5377 7.54939 10.4498 7.63729C10.3619 7.7252 10.3125 7.84443 10.3125 7.96875Z" fill="#404040"/>
</svg>
