<svg width="16" height="16" viewBox="0 0 16 16" fill="none" xmlns="http://www.w3.org/2000/svg">
<path d="M8.00004 1.3335C4.32404 1.3335 1.33337 4.32416 1.33337 8.00016C1.33337 11.6762 4.32404 14.6668 8.00004 14.6668C11.676 14.6668 14.6667 11.6762 14.6667 8.00016C14.6667 4.32416 11.676 1.3335 8.00004 1.3335ZM8.66671 12.0002H7.33337V10.6668H8.66671V12.0002ZM9.31737 8.7435C9.18671 8.84883 9.06071 8.9495 8.96071 9.0495C8.68871 9.32083 8.66737 9.5675 8.66671 9.57816V9.66683H7.33337V9.5555C7.33337 9.47683 7.35271 8.77083 8.01737 8.10616C8.14737 7.97616 8.30871 7.84416 8.47804 7.70683C8.96737 7.31016 9.28871 7.02083 9.28871 6.62216C9.28096 6.28538 9.14171 5.965 8.90075 5.72957C8.65979 5.49415 8.33626 5.36239 7.99938 5.36248C7.66251 5.36256 7.33904 5.4945 7.0982 5.73004C6.85737 5.96559 6.71828 6.28604 6.71071 6.62283H5.37737C5.37737 5.17683 6.55404 4.00016 8.00004 4.00016C9.44604 4.00016 10.6227 5.17683 10.6227 6.62283C10.6227 7.6875 9.83671 8.32283 9.31737 8.7435V8.7435Z" fill="#404040"/>
</svg>
