<svg width="16" height="16" viewBox="0 0 16 16" fill="none" xmlns="http://www.w3.org/2000/svg">
<path d="M14.5434 3.09397C14.4835 3.02555 14.4101 2.97023 14.3279 2.93148C14.2456 2.89272 14.1562 2.87136 14.0653 2.86874C12.653 2.83182 10.8659 1.32166 9.68437 0.729047C8.95452 0.364124 8.47268 0.123509 8.11083 0.0601239C8.03736 0.0494178 7.9627 0.0496252 7.88929 0.0607393C7.52744 0.124124 7.0456 0.364739 6.31637 0.729662C5.13483 1.32166 3.34775 2.83182 1.93544 2.86874C1.84447 2.8715 1.75504 2.89291 1.67268 2.93166C1.59032 2.9704 1.5168 3.02565 1.45668 3.09397C1.33204 3.23498 1.26774 3.41927 1.2776 3.6072C1.58098 9.7752 3.79329 13.5924 7.67514 15.8109C7.77606 15.8681 7.88806 15.8977 7.99944 15.8977C8.11083 15.8977 8.22283 15.8681 8.32437 15.8109C12.2062 13.5924 14.4179 9.7752 14.7219 3.6072C14.7323 3.4193 14.6682 3.23487 14.5434 3.09397V3.09397ZM11.4567 5.51982L8.18098 10.3537C8.06344 10.5272 7.87883 10.6423 7.69606 10.6423C7.51268 10.6423 7.30898 10.542 7.18037 10.4134L4.87144 8.10382C4.79606 8.02815 4.75374 7.9257 4.75374 7.81889C4.75374 7.71209 4.79606 7.60963 4.87144 7.53397L5.44191 6.96228C5.51773 6.88719 5.62012 6.84507 5.72683 6.84507C5.83354 6.84507 5.93593 6.88719 6.01175 6.96228L7.51329 8.46382L10.1219 4.61336C10.1823 4.52524 10.275 4.46459 10.38 4.44464C10.4849 4.4247 10.5934 4.44708 10.6819 4.50689L11.3496 4.95982C11.4378 5.02008 11.4986 5.1128 11.5187 5.21773C11.5387 5.32266 11.5164 5.43126 11.4567 5.51982V5.51982Z" fill="#404040"/>
</svg>
