<svg width="16" height="14" viewBox="0 0 16 14" fill="none" xmlns="http://www.w3.org/2000/svg">
<g clip-path="url(#clip0_201_808)">
<path d="M0 2.625C0 1.6584 0.783398 0.875 1.75 0.875H14C14.9652 0.875 15.75 1.6584 15.75 2.625V11.375C15.75 12.3402 14.9652 13.125 14 13.125H1.75C0.783398 13.125 0 12.3402 0 11.375V2.625ZM4.375 7C4.375 6.51602 3.98398 6.125 3.5 6.125C3.01602 6.125 2.625 6.51602 2.625 7C2.625 7.48398 3.01602 7.875 3.5 7.875C3.98398 7.875 4.375 7.48398 4.375 7ZM4.375 4.375C4.375 3.89102 3.98398 3.5 3.5 3.5C3.01602 3.5 2.625 3.89102 2.625 4.375C2.625 4.85898 3.01602 5.25 3.5 5.25C3.98398 5.25 4.375 4.85898 4.375 4.375ZM4.375 9.625C4.375 9.14102 3.98398 8.75 3.5 8.75C3.01602 8.75 2.625 9.14102 2.625 9.625C2.625 10.109 3.01602 10.5 3.5 10.5C3.98398 10.5 4.375 10.109 4.375 9.625ZM6.125 3.71875C5.76133 3.71875 5.46875 4.01133 5.46875 4.375C5.46875 4.73867 5.76133 5.03125 6.125 5.03125H12.25C12.6137 5.03125 12.9062 4.73867 12.9062 4.375C12.9062 4.01133 12.6137 3.71875 12.25 3.71875H6.125ZM6.125 6.34375C5.76133 6.34375 5.46875 6.63633 5.46875 7C5.46875 7.36367 5.76133 7.65625 6.125 7.65625H12.25C12.6137 7.65625 12.9062 7.36367 12.9062 7C12.9062 6.63633 12.6137 6.34375 12.25 6.34375H6.125ZM6.125 8.96875C5.76133 8.96875 5.46875 9.26133 5.46875 9.625C5.46875 9.98867 5.76133 10.2812 6.125 10.2812H12.25C12.6137 10.2812 12.9062 9.98867 12.9062 9.625C12.9062 9.26133 12.6137 8.96875 12.25 8.96875H6.125Z" fill="#404040"/>
</g>
<defs>
<clipPath id="clip0_201_808">
<rect width="15.75" height="14" fill="white"/>
</clipPath>
</defs>
</svg>
