<svg width="17" height="17" viewBox="0 0 17 17" fill="none" xmlns="http://www.w3.org/2000/svg">
<path d="M10.8611 1.88867H3.30553C3.05505 1.88867 2.81482 1.98818 2.63771 2.16529C2.46059 2.34241 2.36108 2.58263 2.36108 2.83312V14.1664C2.36108 14.4169 2.46059 14.6572 2.63771 14.8343C2.81482 15.0114 3.05505 15.1109 3.30553 15.1109H10.8611C11.1116 15.1109 11.3518 15.0114 11.5289 14.8343C11.706 14.6572 11.8055 14.4169 11.8055 14.1664V11.3331H7.38081C7.25557 11.3331 7.13545 11.2834 7.04689 11.1948C6.95834 11.1062 6.90858 10.9861 6.90858 10.8609C6.90858 10.7357 6.95834 10.6155 7.04689 10.527C7.13545 10.4384 7.25557 10.3887 7.38081 10.3887H11.8055V2.83312C11.8055 2.58263 11.706 2.34241 11.5289 2.16529C11.3518 1.98818 11.1116 1.88867 10.8611 1.88867V1.88867Z" fill="#E34141"/>
<path d="M13.2978 8.15994C13.2074 8.08257 13.0912 8.04215 12.9724 8.04674C12.8535 8.05133 12.7408 8.1006 12.6567 8.1847C12.5726 8.2688 12.5233 8.38154 12.5187 8.50038C12.5141 8.61923 12.5546 8.73543 12.6319 8.82577L14.228 10.3888H11.8055V11.3333H14.228L12.6319 12.9672C12.5825 13.0095 12.5423 13.0616 12.514 13.1202C12.4857 13.1788 12.4697 13.2426 12.4672 13.3076C12.4647 13.3726 12.4757 13.4375 12.4994 13.4981C12.5231 13.5587 12.5592 13.6137 12.6052 13.6597C12.6512 13.7058 12.7062 13.7418 12.7668 13.7655C12.8274 13.7893 12.8923 13.8002 12.9573 13.7977C13.0224 13.7952 13.0862 13.7793 13.1447 13.7509C13.2033 13.7226 13.2554 13.6824 13.2978 13.633L16.0555 10.8941L13.2978 8.15994Z" fill="#E34141"/>
</svg>
