<svg width="10" height="10" viewBox="0 0 10 10" fill="none" xmlns="http://www.w3.org/2000/svg">
    <path d="M4.99587 9.16665C2.69523 9.16435 0.831843 7.29785 0.833375 4.9972C0.834909 2.69656 2.70079 0.832547 5.00143 0.833313C7.30207 0.83408 9.16671 2.69933 9.16671 4.99998C9.16533 7.30222 7.29812 9.16757 4.99587 9.16665ZM1.66671 5.07164C1.68642 6.9055 3.18384 8.37896 5.01777 8.36914C6.8517 8.35924 8.33318 6.86977 8.33318 5.03581C8.33318 3.20186 6.8517 1.71238 5.01777 1.70248C3.18384 1.69267 1.68642 3.16613 1.66671 4.99998V5.07164ZM5.41671 7.08331H4.58337V6.24998H5.41671V7.08331ZM5.41671 5.41665H4.58337V2.91664H5.41671V5.41665Z" fill="#23A3DF"/>
    </svg>
    