<svg width="11" height="15" viewBox="0 0 11 15" fill="none" xmlns="http://www.w3.org/2000/svg">
<path d="M3.80002 0.699951C3.34916 0.699951 2.91675 0.879058 2.59794 1.19787C2.27913 1.51668 2.10002 1.94908 2.10002 2.39995V10.9C2.10002 11.3508 2.27913 11.7832 2.59794 12.102C2.91675 12.4208 3.34916 12.6 3.80002 12.6H8.90003C9.35089 12.6 9.78329 12.4208 10.1021 12.102C10.4209 11.7832 10.6 11.3508 10.6 10.9V2.39995C10.6 1.94908 10.4209 1.51668 10.1021 1.19787C9.78329 0.879058 9.35089 0.699951 8.90003 0.699951H3.80002ZM2.95002 2.39995C2.95002 2.17452 3.03958 1.95832 3.19898 1.79891C3.35839 1.6395 3.57459 1.54995 3.80002 1.54995H8.90003C9.12546 1.54995 9.34166 1.6395 9.50107 1.79891C9.66047 1.95832 9.75003 2.17452 9.75003 2.39995V10.9C9.75003 11.1254 9.66047 11.3416 9.50107 11.501C9.34166 11.6604 9.12546 11.75 8.90003 11.75H3.80002C3.57459 11.75 3.35839 11.6604 3.19898 11.501C3.03958 11.3416 2.95002 11.1254 2.95002 10.9V2.39995ZM0.400024 4.09995C0.400032 3.80155 0.478586 3.5084 0.627792 3.24998C0.776998 2.99155 0.991598 2.77695 1.25002 2.62775V11.325C1.25002 11.8885 1.47391 12.429 1.87242 12.8276C2.27094 13.2261 2.81144 13.45 3.37502 13.45H8.67223C8.52302 13.7084 8.30843 13.923 8.05 14.0722C7.79158 14.2214 7.49843 14.2999 7.20003 14.3H3.37502C2.58601 14.3 1.8293 13.9865 1.27138 13.4286C0.713461 12.8707 0.400024 12.114 0.400024 11.325V4.09995Z" fill="#404040"/>
</svg>
