<svg width="100" height="33" viewBox="0 0 100 33" fill="none" xmlns="http://www.w3.org/2000/svg">
<path d="M35.672 19.28C35.672 17.904 35.928 16.696 36.44 15.656C36.968 14.616 37.68 13.816 38.576 13.256C39.472 12.696 40.472 12.416 41.576 12.416C42.52 12.416 43.344 12.608 44.048 12.992C44.768 13.376 45.32 13.88 45.704 14.504V12.608H49.808V26H45.704V24.104C45.304 24.728 44.744 25.232 44.024 25.616C43.32 26 42.496 26.192 41.552 26.192C40.464 26.192 39.472 25.912 38.576 25.352C37.68 24.776 36.968 23.968 36.44 22.928C35.928 21.872 35.672 20.656 35.672 19.28ZM45.704 19.304C45.704 18.28 45.416 17.472 44.84 16.88C44.28 16.288 43.592 15.992 42.776 15.992C41.96 15.992 41.264 16.288 40.688 16.88C40.128 17.456 39.848 18.256 39.848 19.28C39.848 20.304 40.128 21.12 40.688 21.728C41.264 22.32 41.96 22.616 42.776 22.616C43.592 22.616 44.28 22.32 44.84 21.728C45.416 21.136 45.704 20.328 45.704 19.304ZM60.9371 12.464C62.5051 12.464 63.7531 12.976 64.6811 14C65.6251 15.008 66.0971 16.4 66.0971 18.176V26H62.0171V18.728C62.0171 17.832 61.7851 17.136 61.3211 16.64C60.8571 16.144 60.2331 15.896 59.4491 15.896C58.6651 15.896 58.0411 16.144 57.5771 16.64C57.1131 17.136 56.8811 17.832 56.8811 18.728V26H52.7771V12.608H56.8811V14.384C57.2971 13.792 57.8571 13.328 58.5611 12.992C59.2651 12.64 60.0571 12.464 60.9371 12.464ZM68.1329 19.28C68.1329 17.904 68.3889 16.696 68.9009 15.656C69.4289 14.616 70.1409 13.816 71.0369 13.256C71.9329 12.696 72.9329 12.416 74.0369 12.416C74.9169 12.416 75.7169 12.6 76.4369 12.968C77.1729 13.336 77.7489 13.832 78.1649 14.456V8.24H82.2689V26H78.1649V24.08C77.7809 24.72 77.2289 25.232 76.5089 25.616C75.8049 26 74.9809 26.192 74.0369 26.192C72.9329 26.192 71.9329 25.912 71.0369 25.352C70.1409 24.776 69.4289 23.968 68.9009 22.928C68.3889 21.872 68.1329 20.656 68.1329 19.28ZM78.1649 19.304C78.1649 18.28 77.8769 17.472 77.3009 16.88C76.7409 16.288 76.0529 15.992 75.2369 15.992C74.4209 15.992 73.7249 16.288 73.1489 16.88C72.5889 17.456 72.3089 18.256 72.3089 19.28C72.3089 20.304 72.5889 21.12 73.1489 21.728C73.7249 22.32 74.4209 22.616 75.2369 22.616C76.0529 22.616 76.7409 22.32 77.3009 21.728C77.8769 21.136 78.1649 20.328 78.1649 19.304ZM87.302 11.216C86.582 11.216 85.99 11.008 85.526 10.592C85.078 10.16 84.854 9.632 84.854 9.008C84.854 8.368 85.078 7.84 85.526 7.424C85.99 6.992 86.582 6.776 87.302 6.776C88.006 6.776 88.582 6.992 89.03 7.424C89.494 7.84 89.726 8.368 89.726 9.008C89.726 9.632 89.494 10.16 89.03 10.592C88.582 11.008 88.006 11.216 87.302 11.216ZM89.342 12.608V26H85.238V12.608H89.342ZM96.4201 8.24V26H92.3161V8.24H96.4201Z" fill="#404040"/>
<path d="M30 18C30 26.2843 23.2843 33 15 33C6.71573 33 0 26.2843 0 18C0 9.71573 6.71573 3 15 3C23.2843 3 30 9.71573 30 18Z" fill="#FFDA44"/>
<path d="M21.9685 24.0664C22.3178 22.1397 21.0391 20.2947 19.1124 19.9454V19.9454C17.1857 19.5961 15.3406 20.8748 14.9913 22.8015V22.8015C14.642 24.7282 15.9208 26.5733 17.8475 26.9225L19.7856 27.2739C20.6419 27.4291 21.4619 26.8608 21.6171 26.0045L21.9685 24.0664Z" fill="white"/>
<rect width="15.8182" height="7.09091" rx="3.54545" transform="matrix(-0.983961 -0.178384 -0.178384 0.983961 24.3379 11.4692)" fill="white"/>
<rect width="15.8182" height="7.09091" rx="3.54545" transform="matrix(-0.178384 0.983961 0.983961 0.178384 8.41833 9.05396)" fill="white"/>
</svg>
