<svg width="47" height="21" viewBox="0 0 47 21" fill="none" xmlns="http://www.w3.org/2000/svg">
<path d="M3.66 12.36H8.14V15H0.24V0.96H3.66V12.36Z" fill="#FFDA44"/>
<path d="M14.8513 15.16C13.7579 15.16 12.7713 14.9267 11.8913 14.46C11.0246 13.9933 10.3379 13.3267 9.83125 12.46C9.33792 11.5933 9.09125 10.58 9.09125 9.42C9.09125 8.27333 9.34458 7.26667 9.85125 6.4C10.3579 5.52 11.0513 4.84667 11.9313 4.38C12.8113 3.91333 13.7979 3.68 14.8913 3.68C15.9846 3.68 16.9713 3.91333 17.8513 4.38C18.7313 4.84667 19.4246 5.52 19.9313 6.4C20.4379 7.26667 20.6913 8.27333 20.6913 9.42C20.6913 10.5667 20.4313 11.58 19.9113 12.46C19.4046 13.3267 18.7046 13.9933 17.8113 14.46C16.9313 14.9267 15.9446 15.16 14.8513 15.16ZM14.8513 12.2C15.5046 12.2 16.0579 11.96 16.5113 11.48C16.9779 11 17.2113 10.3133 17.2113 9.42C17.2113 8.52667 16.9846 7.84 16.5313 7.36C16.0913 6.88 15.5446 6.64 14.8913 6.64C14.2246 6.64 13.6713 6.88 13.2313 7.36C12.7913 7.82667 12.5713 8.51333 12.5713 9.42C12.5713 10.3133 12.7846 11 13.2113 11.48C13.6513 11.96 14.1979 12.2 14.8513 12.2ZM26.7456 3.68C27.5323 3.68 28.219 3.84 28.8056 4.16C29.4056 4.48 29.8656 4.9 30.1856 5.42V3.84H33.6056V14.98C33.6056 16.0067 33.399 16.9333 32.9856 17.76C32.5856 18.6 31.9656 19.2667 31.1256 19.76C30.299 20.2533 29.2656 20.5 28.0256 20.5C26.3723 20.5 25.0323 20.1067 24.0056 19.32C22.979 18.5467 22.3923 17.4933 22.2456 16.16H25.6256C25.7323 16.5867 25.9856 16.92 26.3856 17.16C26.7856 17.4133 27.279 17.54 27.8656 17.54C28.5723 17.54 29.1323 17.3333 29.5456 16.92C29.9723 16.52 30.1856 15.8733 30.1856 14.98V13.4C29.8523 13.92 29.3923 14.3467 28.8056 14.68C28.219 15 27.5323 15.16 26.7456 15.16C25.8256 15.16 24.9923 14.9267 24.2456 14.46C23.499 13.98 22.9056 13.3067 22.4656 12.44C22.039 11.56 21.8256 10.5467 21.8256 9.4C21.8256 8.25333 22.039 7.24667 22.4656 6.38C22.9056 5.51333 23.499 4.84667 24.2456 4.38C24.9923 3.91333 25.8256 3.68 26.7456 3.68ZM30.1856 9.42C30.1856 8.56667 29.9456 7.89333 29.4656 7.4C28.999 6.90667 28.4256 6.66 27.7456 6.66C27.0656 6.66 26.4856 6.90667 26.0056 7.4C25.539 7.88 25.3056 8.54667 25.3056 9.4C25.3056 10.2533 25.539 10.9333 26.0056 11.44C26.4856 11.9333 27.0656 12.18 27.7456 12.18C28.4256 12.18 28.999 11.9333 29.4656 11.44C29.9456 10.9467 30.1856 10.2733 30.1856 9.42ZM41.1598 15.16C40.0665 15.16 39.0798 14.9267 38.1998 14.46C37.3332 13.9933 36.6465 13.3267 36.1398 12.46C35.6465 11.5933 35.3998 10.58 35.3998 9.42C35.3998 8.27333 35.6532 7.26667 36.1598 6.4C36.6665 5.52 37.3598 4.84667 38.2398 4.38C39.1198 3.91333 40.1065 3.68 41.1998 3.68C42.2932 3.68 43.2798 3.91333 44.1598 4.38C45.0398 4.84667 45.7332 5.52 46.2398 6.4C46.7465 7.26667 46.9998 8.27333 46.9998 9.42C46.9998 10.5667 46.7398 11.58 46.2198 12.46C45.7132 13.3267 45.0132 13.9933 44.1198 14.46C43.2398 14.9267 42.2532 15.16 41.1598 15.16ZM41.1598 12.2C41.8132 12.2 42.3665 11.96 42.8198 11.48C43.2865 11 43.5198 10.3133 43.5198 9.42C43.5198 8.52667 43.2932 7.84 42.8398 7.36C42.3998 6.88 41.8532 6.64 41.1998 6.64C40.5332 6.64 39.9798 6.88 39.5398 7.36C39.0998 7.82667 38.8798 8.51333 38.8798 9.42C38.8798 10.3133 39.0932 11 39.5198 11.48C39.9598 11.96 40.5065 12.2 41.1598 12.2Z" fill="#404040"/>
</svg>
