<svg width="20" height="20" viewBox="0 0 20 20" fill="none" xmlns="http://www.w3.org/2000/svg">
<path d="M8.34167 17.5083C8.34167 18.425 9.08333 19.1667 10 19.1667C10.9167 19.1667 11.6583 18.425 11.6583 17.5083H8.34167ZM10 5C12.3 5 14.1667 6.86667 14.1667 9.16667V15H5.83333V9.16667C5.83333 6.86667 7.7 5 10 5ZM10 1.25C9.30833 1.25 8.75 1.80833 8.75 2.5V3.475C6.13333 4.04167 4.16667 6.375 4.16667 9.16667V14.1667L2.5 15.8333V16.6667H17.5V15.8333L15.8333 14.1667V9.16667C15.8333 6.375 13.8667 4.04167 11.25 3.475V2.5C11.25 1.80833 10.6917 1.25 10 1.25Z" fill="white"/>
</svg>
