<svg width="270" height="270" viewBox="0 0 270 270" fill="none" xmlns="http://www.w3.org/2000/svg">
<path opacity="0.7" d="M36.6822 90.2286C36.6822 90.2286 21.627 129.109 42.7842 168.259C63.9414 207.409 107.519 228.091 142.398 245.776C177.277 263.461 213.494 254.848 230.704 225.882C247.914 196.916 224.311 176.24 224.278 134.935C224.246 93.6306 230.461 82.6956 208.078 47.8008C185.695 12.906 130.826 5.17862 89.3322 31.0608C47.8386 56.943 36.6822 90.2286 36.6822 90.2286Z" fill="white"/>
<path d="M71.28 230.888C84.024 244.345 115.312 239.414 128.866 230.888C172.876 203.213 249.977 157.14 253.471 90.396C254.956 62.0298 229.937 47.1312 219.488 42.7626C194.4 32.265 166.86 29.1168 139.671 27.9018C111.283 26.6328 80.811 27.621 55.2636 41.472C45.576 46.7154 36.4392 53.46 30.186 62.64C23.8356 71.9712 20.1798 83.0844 19.2078 94.3002C17.6472 112.39 22.5126 130.529 29.8728 147.128C37.233 163.728 47.0448 179.096 56.052 194.864C61.9326 205.141 60.5664 219.553 71.28 230.888Z" fill="#FFDA44"/>
<path opacity="0.7" d="M71.28 230.888C84.024 244.345 115.312 239.414 128.866 230.888C172.876 203.213 249.977 157.14 253.471 90.396C254.956 62.0298 229.937 47.1312 219.488 42.7626C194.4 32.265 166.86 29.1168 139.671 27.9018C111.283 26.6328 80.811 27.621 55.2636 41.472C45.576 46.7154 36.4392 53.46 30.186 62.64C23.8356 71.9712 20.1798 83.0844 19.2078 94.3002C17.6472 112.39 22.5126 130.529 29.8728 147.128C37.233 163.728 47.0448 179.096 56.052 194.864C61.9326 205.141 60.5664 219.553 71.28 230.888Z" fill="white"/>
<path d="M76.2541 75.9313L50.36 68.1091C49.3551 67.8055 48.2943 68.3741 47.9907 69.379L43.3851 84.6252C43.0816 85.6301 43.6501 86.6908 44.6551 86.9944L70.5491 94.8166C71.5541 95.1202 72.6148 94.5516 72.9184 93.5467L77.524 78.3005C77.8276 77.2956 77.259 76.2349 76.2541 75.9313Z" stroke="#263238" stroke-width="1.00285" stroke-miterlimit="10"/>
<path d="M47.0772 71.7336L76.5126 80.6544" stroke="#263238" stroke-miterlimit="10"/>
<path d="M46.1808 74.6874L75.6216 83.6082" stroke="#263238" stroke-miterlimit="10"/>
<path d="M66.663 89.1324C66.5881 89.381 66.5643 89.6421 66.5931 89.9001C66.6218 90.1581 66.7026 90.4076 66.8304 90.6336C66.3891 90.8516 65.8815 90.894 65.4102 90.7524C65.11 90.6617 64.8367 90.4988 64.6141 90.2779C64.3916 90.057 64.2266 89.7849 64.1337 89.4854C64.0407 89.1859 64.0227 88.8682 64.0811 88.5601C64.1395 88.2521 64.2726 87.963 64.4688 87.7184C64.6649 87.4737 64.918 87.2809 65.206 87.1568C65.494 87.0327 65.808 86.9811 66.1205 87.0067C66.433 87.0322 66.7345 87.134 66.9986 87.3031C67.2626 87.4722 67.4811 87.7036 67.635 87.9768C67.4041 88.0949 67.1991 88.2579 67.0322 88.4564C66.8653 88.6548 66.7397 88.8847 66.663 89.1324Z" stroke="#263238" stroke-miterlimit="10"/>
<path d="M70.3296 90.2448C70.2191 90.6075 70.0035 90.9293 69.7101 91.1695C69.4167 91.4097 69.0587 91.5575 68.6812 91.5942C68.3038 91.6309 67.924 91.5548 67.5899 91.3756C67.2557 91.1964 66.9822 90.9221 66.8039 90.5875C66.6256 90.2528 66.5506 89.8728 66.5883 89.4955C66.626 89.1182 66.7748 88.7606 67.0157 88.4678C67.2567 88.1751 67.5791 87.9604 67.9421 87.8509C68.3052 87.7413 68.6925 87.742 69.0552 87.8526C69.5413 88.0009 69.9487 88.3362 70.1877 88.7848C70.4267 89.2334 70.4777 89.7586 70.3296 90.2448Z" stroke="#263238" stroke-miterlimit="10"/>
<path d="M252.253 112.734L230.842 106.245C229.841 105.941 228.782 106.507 228.479 107.509L224.726 119.892C224.423 120.893 224.989 121.952 225.99 122.255L247.401 128.744C248.403 129.048 249.461 128.482 249.765 127.48L253.517 115.097C253.821 114.096 253.255 113.037 252.253 112.734Z" stroke="#263238" stroke-miterlimit="10"/>
<path d="M227.902 109.415L252.941 117.002" stroke="#263238" stroke-miterlimit="10"/>
<path d="M227.14 111.931L252.175 119.518" stroke="#263238" stroke-miterlimit="10"/>
<path d="M244.561 124.2C244.496 124.411 244.475 124.633 244.499 124.852C244.523 125.071 244.592 125.283 244.701 125.474C244.465 125.589 244.204 125.645 243.941 125.637C243.678 125.628 243.421 125.556 243.193 125.427C242.964 125.297 242.771 125.113 242.629 124.892C242.487 124.671 242.401 124.418 242.378 124.156C242.356 123.895 242.397 123.631 242.499 123.389C242.601 123.147 242.761 122.933 242.964 122.766C243.167 122.599 243.408 122.484 243.665 122.431C243.923 122.378 244.189 122.388 244.442 122.461C244.843 122.582 245.181 122.853 245.387 123.217C245.189 123.316 245.014 123.454 244.872 123.623C244.73 123.792 244.624 123.989 244.561 124.2V124.2Z" stroke="#263238" stroke-miterlimit="10"/>
<path d="M247.676 125.161C247.581 125.466 247.397 125.736 247.149 125.937C246.9 126.138 246.598 126.261 246.279 126.29C245.961 126.319 245.641 126.254 245.36 126.102C245.079 125.95 244.849 125.718 244.699 125.436C244.55 125.154 244.487 124.834 244.519 124.516C244.55 124.198 244.676 123.896 244.878 123.649C245.081 123.402 245.352 123.22 245.658 123.127C245.964 123.034 246.29 123.033 246.596 123.125C246.802 123.187 246.993 123.289 247.158 123.425C247.324 123.561 247.461 123.728 247.562 123.918C247.662 124.107 247.724 124.315 247.744 124.528C247.763 124.741 247.74 124.957 247.676 125.161V125.161Z" stroke="#263238" stroke-miterlimit="10"/>
<path d="M217.987 53.5757L186.73 67.886L194.176 84.1475L225.432 69.8372L217.987 53.5757Z" stroke="#263238" stroke-miterlimit="10"/>
<path d="M222.745 67.5L218.014 57.1698C217.572 57.3716 217.068 57.39 216.613 57.2209C216.157 57.0519 215.788 56.7092 215.584 56.268L190.318 67.8348C190.519 68.2767 190.538 68.7806 190.369 69.2361C190.2 69.6916 189.857 70.0615 189.416 70.2648L194.146 80.595C194.365 80.4945 194.602 80.4383 194.843 80.4295C195.084 80.4208 195.324 80.4597 195.55 80.544C195.775 80.6282 195.982 80.7563 196.158 80.9207C196.335 81.0852 196.477 81.2828 196.576 81.5022L221.837 69.93C221.737 69.711 221.681 69.4742 221.672 69.2334C221.663 68.9926 221.702 68.7524 221.786 68.5266C221.871 68.3008 221.999 68.0939 222.163 67.9178C222.328 67.7416 222.525 67.5996 222.745 67.5Z" stroke="#263238" stroke-miterlimit="10"/>
<path d="M208.943 72.5917C211.001 71.0111 211.387 68.0617 209.807 66.0041C208.226 63.9465 205.277 63.5597 203.219 65.1403C201.162 66.7209 200.775 69.6703 202.356 71.7279C203.936 73.7856 206.885 74.1723 208.943 72.5917Z" stroke="#263238" stroke-miterlimit="10"/>
<path d="M207.36 71.1396L207.711 71.9064L207.376 72.0576L207.031 71.3016C206.439 71.559 205.776 71.601 205.157 71.4204V70.9506C205.704 71.1162 206.292 71.0876 206.82 70.8696L206.026 69.12C205.205 69.2766 204.358 69.3954 203.953 68.5098C203.661 67.8726 203.866 67.1058 204.849 66.5604L204.498 65.7882L204.833 65.637L205.2 66.42C205.686 66.2093 206.221 66.1382 206.744 66.2148V66.6846C206.283 66.618 205.812 66.672 205.378 66.8412L206.188 68.6124C207.025 68.445 207.916 68.2938 208.348 69.1902C208.618 69.8112 208.386 70.5942 207.36 71.1396ZM205.816 68.6502L205.049 66.96C204.385 67.3326 204.239 67.8294 204.433 68.2506C204.66 68.7798 205.2 68.7582 205.81 68.6502H205.816ZM207.851 69.4116C207.614 68.8716 207.041 68.9256 206.404 69.0498L207.166 70.7184C207.9 70.3296 208.04 69.8382 207.846 69.4116H207.851Z" fill="#263238"/>
<path d="M45.4917 127.652L21.4563 129.815L22.5814 142.316L46.6168 140.153L45.4917 127.652Z" stroke="#263238" stroke-width="1.00404" stroke-miterlimit="10"/>
<path d="M44.685 137.624L44.0046 129.713C43.6661 129.742 43.3301 129.635 43.07 129.417C42.81 129.198 42.647 128.885 42.6168 128.547L23.2632 130.221C23.2902 130.559 23.183 130.894 22.9647 131.154C22.7464 131.414 22.4346 131.577 22.0968 131.609L22.7772 139.52C22.945 139.505 23.114 139.523 23.2746 139.574C23.4353 139.625 23.5843 139.707 23.7132 139.815C23.8422 139.923 23.9484 140.056 24.026 140.206C24.1035 140.355 24.1507 140.518 24.165 140.686L43.5186 139.012C43.4916 138.674 43.5988 138.339 43.8171 138.079C44.0354 137.819 44.3472 137.656 44.685 137.624V137.624Z" stroke="#263238" stroke-miterlimit="10"/>
<path d="M36.666 134.336C36.7223 134.984 36.5852 135.634 36.2719 136.204C35.9587 136.774 35.4834 137.239 34.9061 137.539C34.3289 137.839 33.6756 137.961 33.029 137.889C32.3824 137.818 31.7715 137.557 31.2735 137.138C30.7756 136.719 30.413 136.162 30.2316 135.538C30.0502 134.913 30.0581 134.248 30.2544 133.628C30.4507 133.008 30.8266 132.46 31.3344 132.053C31.8422 131.647 32.4592 131.4 33.1074 131.344C33.5376 131.306 33.971 131.354 34.3828 131.484C34.7947 131.614 35.1768 131.824 35.5074 132.102C35.8379 132.38 36.1104 132.72 36.3092 133.103C36.508 133.487 36.6293 133.906 36.666 134.336V134.336Z" stroke="#263238" stroke-miterlimit="10"/>
<path d="M33.696 136.42L33.7446 137.009H33.4908L33.4368 136.426C32.988 136.455 32.5429 136.327 32.1786 136.064L32.2974 135.761C32.6196 135.996 33.0118 136.114 33.4098 136.096L33.2964 134.752C32.7186 134.665 32.13 134.541 32.076 133.866C32.0328 133.375 32.346 132.916 33.1236 132.786L33.075 132.197H33.3288L33.3774 132.775C33.7519 132.751 34.1258 132.832 34.4574 133.007L34.3548 133.315C34.0666 133.165 33.7452 133.091 33.4206 133.099L33.534 134.455C34.1226 134.541 34.749 134.654 34.8084 135.34C34.8408 135.842 34.5006 136.301 33.696 136.42ZM33.264 134.417L33.1506 133.137C32.6106 133.229 32.4162 133.52 32.4432 133.844C32.4702 134.168 32.832 134.347 33.264 134.417ZM34.425 135.4C34.3872 134.995 34.0038 134.86 33.5556 134.816L33.6636 136.096C34.2252 136.004 34.452 135.724 34.425 135.4Z" fill="#263238"/>
<path d="M239.938 60.8634C242.533 60.8634 244.636 58.76 244.636 56.1654C244.636 53.5708 242.533 51.4674 239.938 51.4674C237.344 51.4674 235.24 53.5708 235.24 56.1654C235.24 58.76 237.344 60.8634 239.938 60.8634Z" stroke="#263238" stroke-miterlimit="10"/>
<path d="M240.149 58.7736V59.616H239.76V58.779C239.116 58.7663 238.496 58.5317 238.005 58.1148L238.216 57.6936C238.645 58.0707 239.189 58.2914 239.76 58.32V56.3922C238.95 56.1924 238.14 55.944 238.14 54.972C238.14 54.27 238.648 53.6598 239.76 53.5734V52.7148H240.127V53.5518C240.657 53.563 241.173 53.722 241.618 54.0108L241.434 54.4428C241.043 54.1902 240.592 54.0433 240.127 54.0162V55.9602C240.953 56.16 241.828 56.3922 241.828 57.3804C241.85 58.0878 241.315 58.7088 240.149 58.7736ZM239.782 55.863V54.0324C239.026 54.0972 238.702 54.486 238.702 54.9504C238.68 55.5066 239.177 55.7118 239.76 55.863H239.782ZM241.315 57.4074C241.315 56.8296 240.775 56.6298 240.149 56.4732V58.32C240.953 58.2498 241.315 57.8772 241.315 57.4074Z" fill="#263238"/>
<path d="M208.995 119.017C211.521 118.422 213.086 115.892 212.49 113.366C211.895 110.841 209.366 109.276 206.84 109.871C204.315 110.466 202.75 112.996 203.345 115.522C203.94 118.047 206.47 119.612 208.995 119.017Z" stroke="#263238" stroke-miterlimit="10"/>
<path d="M206.734 116.77L206.296 117.488L205.983 117.293L206.42 116.581C205.877 116.235 205.471 115.709 205.276 115.096L205.675 114.847C205.844 115.391 206.193 115.861 206.663 116.181L207.679 114.534C207.09 113.945 206.523 113.303 207.031 112.477C207.398 111.877 208.148 111.623 209.153 112.136L209.596 111.413L209.909 111.607L209.471 112.32C209.914 112.609 210.271 113.012 210.503 113.486L210.119 113.762C209.916 113.343 209.609 112.982 209.228 112.714L208.208 114.372C208.813 114.977 209.434 115.63 208.915 116.473C208.543 117.077 207.765 117.32 206.734 116.77ZM207.949 114.07L208.904 112.509C208.229 112.169 207.738 112.32 207.495 112.714C207.203 113.216 207.511 113.654 207.949 114.097V114.07ZM208.445 116.186C208.748 115.695 208.397 115.247 207.938 114.782L206.977 116.348C207.695 116.748 208.197 116.64 208.44 116.213L208.445 116.186Z" fill="#263238"/>
<path d="M140.497 23.76C140.883 24.6052 141.01 25.5458 140.861 26.463C140.712 27.3801 140.295 28.2325 139.662 28.9125C139.029 29.5925 138.208 30.0695 137.304 30.2831C136.4 30.4968 135.452 30.4376 134.582 30.1129C133.711 29.7882 132.957 29.2127 132.413 28.4592C131.87 27.7056 131.562 26.8078 131.529 25.8793C131.495 24.9508 131.738 24.0333 132.226 23.2427C132.714 22.4522 133.426 21.8241 134.271 21.438C134.832 21.1808 135.439 21.0369 136.055 21.0144C136.672 20.9919 137.288 21.0914 137.866 21.3071C138.444 21.5228 138.974 21.8505 139.426 22.2714C139.877 22.6923 140.242 23.1982 140.497 23.76V23.76Z" stroke="#263238" stroke-miterlimit="10"/>
<path d="M137.5 27.9882L137.851 28.755L137.516 28.9116L137.16 28.1502C136.568 28.4076 135.905 28.4497 135.286 28.269V27.7992C135.831 27.9639 136.416 27.9373 136.944 27.7236L136.145 25.9632C135.324 26.1198 134.476 26.2332 134.071 25.353C133.78 24.7104 133.985 23.949 134.973 23.4036L134.622 22.6314L134.951 22.4802L135.302 23.2416C135.788 23.0309 136.323 22.9598 136.847 23.0364V23.5062C136.385 23.4409 135.915 23.4948 135.481 23.6628L136.291 25.434C137.128 25.2666 138.019 25.1208 138.451 26.0118C138.78 26.6598 138.532 27.4428 137.5 27.9882ZM135.956 25.4988L135.194 23.8302C134.53 24.2028 134.384 24.6996 134.579 25.1154C134.811 25.623 135.346 25.6068 135.956 25.4988ZM137.992 26.2602C137.749 25.7202 137.182 25.7796 136.544 25.8984L137.306 27.567C138.013 27.1782 138.186 26.6922 137.992 26.2602Z" fill="#263238"/>
<path d="M124.675 214.018C125.255 215.288 125.445 216.701 125.222 218.079C124.998 219.457 124.371 220.737 123.42 221.759C122.469 222.781 121.236 223.497 119.878 223.818C118.519 224.139 117.096 224.05 115.789 223.562C114.481 223.075 113.347 222.21 112.53 221.078C111.714 219.946 111.252 218.597 111.202 217.202C111.152 215.807 111.517 214.428 112.25 213.241C112.984 212.053 114.053 211.11 115.322 210.53C116.166 210.145 117.076 209.929 118.003 209.896C118.929 209.863 119.853 210.013 120.721 210.337C121.59 210.661 122.386 211.153 123.064 211.784C123.743 212.416 124.29 213.175 124.675 214.018V214.018Z" stroke="#263238" stroke-miterlimit="10"/>
<path d="M120.166 220.379L120.706 221.535L120.204 221.762L119.664 220.617C118.777 221.006 117.781 221.071 116.851 220.801L116.883 220.099C117.703 220.343 118.581 220.299 119.372 219.974L118.168 217.339C116.942 217.571 115.663 217.744 115.058 216.421C114.615 215.46 114.928 214.31 116.408 213.489L115.868 212.339L116.365 212.107L116.905 213.251C117.635 212.937 118.439 212.83 119.227 212.944V213.646C118.535 213.548 117.831 213.63 117.18 213.883L118.39 216.54C119.648 216.292 120.987 216.07 121.603 217.409C122.067 218.387 121.721 219.564 120.166 220.379ZM117.855 216.637L116.705 214.132C115.717 214.672 115.495 215.433 115.787 216.07C116.132 216.832 116.932 216.805 117.855 216.637ZM120.911 217.787C120.55 216.994 119.691 217.058 118.751 217.247L119.896 219.753C120.96 219.164 121.203 218.43 120.911 217.787Z" fill="#263238"/>
<path d="M23.5764 104.344C22.5277 105.265 21.2295 105.855 19.8459 106.038C18.4622 106.222 17.0552 105.991 15.8029 105.374C14.5505 104.758 13.5089 103.785 12.8099 102.576C12.1108 101.368 11.7856 99.9801 11.8755 98.5873C11.9653 97.1944 12.4661 95.8595 13.3146 94.7512C14.163 93.643 15.3211 92.8112 16.6422 92.361C17.9634 91.9108 19.3883 91.8624 20.737 92.222C22.0856 92.5816 23.2973 93.333 24.219 94.3812C24.8312 95.0775 25.3002 95.8875 25.5992 96.7651C25.8983 97.6427 26.0215 98.5706 25.9618 99.4958C25.9021 100.421 25.6608 101.325 25.2515 102.157C24.8422 102.989 24.273 103.732 23.5764 104.344Z" stroke="#263238" stroke-miterlimit="10"/>
<path d="M16.2 101.86L15.2496 102.697L14.8824 102.281L15.8274 101.455C15.2013 100.714 14.852 99.7791 14.8392 98.8092L15.525 98.6364C15.5253 99.4871 15.8126 100.313 16.3404 100.98L18.5004 99.0684C17.9226 97.9614 17.388 96.7842 18.5004 95.8284C19.2996 95.1318 20.4876 95.0994 21.6972 96.2766L22.68 95.445L23.0418 95.8554L22.0968 96.687C22.5995 97.2985 22.9245 98.0363 23.0364 98.82L22.3668 99.0414C22.2592 98.3509 21.9787 97.6989 21.5514 97.146L19.3536 99.0738C19.953 100.202 20.5524 101.423 19.4454 102.4C18.6408 103.102 17.415 103.14 16.2 101.86ZM19.116 98.5662L21.1842 96.7464C20.3634 95.958 19.5642 95.9634 19.0674 96.4224C18.4194 96.9732 18.6786 97.74 19.0998 98.5662H19.116ZM18.8946 101.806C19.5534 101.234 19.2456 100.429 18.792 99.5652L16.7238 101.385C17.5716 102.254 18.36 102.287 18.9 101.822L18.8946 101.806Z" fill="#263238"/>
<path d="M55.8859 164.543C55.9611 162.661 54.4966 161.075 52.6148 160.999C50.7329 160.924 49.1463 162.389 49.071 164.27C48.9958 166.152 50.4603 167.739 52.3422 167.814C54.224 167.889 55.8106 166.425 55.8859 164.543Z" stroke="#263238" stroke-width="1.0008" stroke-miterlimit="10"/>
<path d="M53.46 165.067L53.8488 165.537L53.649 165.704L53.2602 165.24C52.8948 165.534 52.4383 165.69 51.9696 165.683L51.894 165.348C52.3062 165.359 52.7098 165.229 53.0388 164.981L52.1424 163.901C51.6024 164.165 51.03 164.408 50.5764 163.868C50.2524 163.48 50.2524 162.902 50.8356 162.329L50.4414 161.86L50.6466 161.692L51.0354 162.157C51.336 161.918 51.6966 161.767 52.0776 161.719L52.1748 162.043C51.841 162.089 51.5238 162.217 51.2514 162.416L52.1532 163.496C52.6932 163.22 53.3034 162.956 53.7732 163.496C54.1026 163.895 54.0918 164.489 53.46 165.067ZM51.9156 163.62L51.0624 162.599C50.6736 162.988 50.6682 163.361 50.8788 163.62C51.0894 163.879 51.5106 163.809 51.9156 163.62ZM53.487 163.766C53.217 163.447 52.8282 163.582 52.407 163.793L53.2602 164.813C53.676 164.403 53.703 164.025 53.487 163.76V163.766Z" fill="#263238"/>
<path d="M160.699 231.752C161.13 232.27 161.398 232.904 161.468 233.574C161.539 234.244 161.41 234.92 161.096 235.516C160.783 236.113 160.3 236.603 159.708 236.925C159.116 237.247 158.442 237.386 157.771 237.325C157.1 237.264 156.462 237.005 155.938 236.582C155.414 236.158 155.027 235.589 154.827 234.945C154.626 234.302 154.621 233.614 154.812 232.967C155.002 232.321 155.38 231.746 155.898 231.314C156.593 230.737 157.489 230.459 158.389 230.541C159.289 230.623 160.119 231.058 160.699 231.752V231.752Z" stroke="#263238" stroke-miterlimit="10"/>
<path d="M159.403 235.289L159.797 235.759L159.592 235.926L159.203 235.462C158.84 235.755 158.385 235.912 157.918 235.904L157.842 235.57C158.255 235.583 158.659 235.453 158.987 235.202L158.09 234.122C157.55 234.387 156.973 234.63 156.524 234.09C156.195 233.701 156.195 233.123 156.778 232.551L156.389 232.081L156.595 231.914L156.983 232.378C157.283 232.137 157.644 231.986 158.026 231.941L158.123 232.265C157.787 232.311 157.468 232.439 157.194 232.637L158.101 233.717C158.641 233.442 159.251 233.177 159.721 233.717C160.034 234.117 160.024 234.711 159.403 235.289ZM157.853 233.82L157 232.799C156.605 233.188 156.6 233.561 156.816 233.82C157.032 234.079 157.442 234.031 157.853 233.82ZM159.419 233.971C159.149 233.647 158.76 233.782 158.339 233.971L159.192 234.992C159.613 234.625 159.64 234.247 159.419 233.987V233.971Z" fill="#263238"/>
<path d="M67.4391 37.6292C67.6109 35.7552 66.2311 34.0967 64.3571 33.9248C62.4831 33.7529 60.8246 35.1328 60.6527 37.0068C60.4809 38.8808 61.8607 40.5393 63.7347 40.7111C65.6087 40.883 67.2672 39.5031 67.4391 37.6292Z" stroke="#263238" stroke-miterlimit="10"/>
<path d="M65.3778 38.6748L65.7666 39.1446L65.5614 39.312L65.1726 38.8476C64.8098 39.1421 64.3546 39.2989 63.8874 39.2904L63.8118 38.9556C64.224 38.9664 64.6276 38.837 64.9566 38.5884L64.0602 37.5084C63.5202 37.773 62.9424 38.016 62.4942 37.476C62.1702 37.0872 62.1648 36.5094 62.7534 35.937L62.3592 35.4672L62.5644 35.2998L62.9532 35.7642C63.2532 35.5245 63.6141 35.373 63.9954 35.3268L64.0926 35.6508C63.7588 35.6971 63.4416 35.8251 63.1692 36.0234L64.071 37.1034C64.611 36.828 65.2212 36.5634 65.691 37.1034C66.0096 37.503 65.9934 38.097 65.3778 38.6748ZM63.8226 37.2222L62.9694 36.18C62.5806 36.5688 62.5698 36.9414 62.7858 37.2006C63.0018 37.4598 63.4122 37.4166 63.8226 37.2222ZM65.394 37.368C65.124 37.0494 64.7298 37.1844 64.314 37.368L65.1672 38.3886C65.583 38.0106 65.61 37.6326 65.394 37.368Z" fill="#263238"/>
<path opacity="0.2" d="M140.837 177.017C140.837 177.017 136.674 198.148 111.137 202.937C111.137 202.937 104.468 208.256 102.249 211.405C100.03 214.553 88.209 219.904 76.167 236.601C64.125 253.298 46.197 200.275 46.197 200.275L85.8222 148.813L140.837 177.017Z" fill="black" fill-opacity="0.7"/>
<path d="M163.534 77.8032C163.534 77.8032 177.304 71.0694 180.333 72.2304C183.362 73.3914 186.273 80.3574 174.69 87.0264C163.107 93.6954 166.563 106.121 166.563 106.121H174.825C174.825 106.121 179.782 108.14 181.71 110.738C183.638 113.335 185.015 122.191 186.116 125.194C187.218 128.196 186.656 131.204 183.638 132.181C183.638 132.181 181.71 140.584 182.261 144.31C182.812 148.036 182.536 150.433 178.956 150.887C178.055 150.981 177.145 150.878 176.288 150.585C175.431 150.292 174.647 149.816 173.993 149.19C173.338 148.565 172.827 147.804 172.495 146.961C172.163 146.119 172.018 145.214 172.071 144.31L169.317 154.289L171.245 158.123C173.968 159.177 176.485 160.701 178.681 162.626C182.536 165.931 186.392 166.833 185.29 170.516C184.189 174.199 181.985 178.168 170.419 173.567C158.852 168.966 149.213 150.887 149.213 150.887L142.263 87.8472L163.534 77.8032Z" fill="white"/>
<path opacity="0.4" d="M178.027 114.016C171.785 122.526 178.691 132.327 178.691 132.327C178.691 132.327 174.371 134.735 174.247 140.881C174.199 143.435 174.841 147.004 175.608 150.309C174.485 149.779 173.548 148.923 172.919 147.853C172.289 146.783 171.995 145.548 172.076 144.31L169.317 154.289L171.245 158.117C173.273 158.894 175.185 159.946 176.926 161.244C175.214 165.175 174.69 170.035 174.841 175.046C173.337 174.647 171.86 174.153 170.419 173.567C158.852 168.961 149.213 150.887 149.213 150.887L142.263 87.8418L163.534 77.8032C163.534 77.8032 171.056 74.1258 176.207 72.6732C175.808 77.49 176.747 82.4742 177.428 85.2498C176.549 85.8928 175.635 86.486 174.69 87.0264C163.123 93.6954 166.563 106.121 166.563 106.121H174.83C174.83 106.121 179.539 108.043 181.559 110.543C180.178 111.473 178.98 112.65 178.027 114.016Z" fill="#FFDA44"/>
<path d="M142.02 166.86C142.02 166.86 127.04 196.231 100.04 202.894C100.04 202.894 99.009 208.705 94.4406 211.199C91.9998 212.528 82.1502 227.286 73.5048 240.759L25.6176 211.383C28.566 208.467 31.9248 205.108 35.3376 201.604C45.3276 191.419 55.9872 180.004 59.2488 174.355C62.1648 169.333 65.853 160.618 69.066 152.426C73.1808 141.95 76.5288 132.327 76.5288 132.327L92.4912 114.583L117.585 86.6808L118.665 90.2502L142.02 166.86Z" fill="white"/>
<path opacity="0.4" d="M117.607 86.6808L142.02 166.86C142.02 166.86 127.04 196.231 100.04 202.894C100.04 202.894 99.009 208.705 94.4406 211.199C92.2482 212.393 84.0888 224.408 76.194 236.579C79.1208 226.535 87.5934 210.524 87.5934 210.524C82.1556 204.082 83.7432 197.294 85.9194 199.228C88.0956 201.161 93.5658 206.593 93.9114 206.933C91.5084 204.104 90.9522 199.67 90.9522 199.67C90.9522 199.67 97.6914 204.152 98.2368 196.97C98.7822 189.788 94.1976 172.238 94.1976 172.238L82.161 126.09L117.607 86.6808Z" fill="#FFDA44"/>
<path d="M142.263 87.8472L163.534 77.8032C163.534 77.8032 177.304 71.0694 180.333 72.2304C183.362 73.3914 186.273 80.3574 174.69 87.0264C163.107 93.6954 166.563 106.121 166.563 106.121H174.825C174.825 106.121 179.782 108.14 181.71 110.738C183.638 113.335 185.015 122.191 186.116 125.194C187.218 128.196 186.656 131.204 183.638 132.181C183.638 132.181 181.71 140.584 182.261 144.31C182.812 148.036 182.536 150.433 178.956 150.887C178.055 150.981 177.145 150.878 176.288 150.585C175.431 150.292 174.647 149.816 173.993 149.19C173.338 148.565 172.827 147.804 172.495 146.961C172.163 146.119 172.018 145.214 172.071 144.31L169.317 154.289L171.245 158.123C173.968 159.177 176.485 160.701 178.681 162.626C182.536 165.931 186.392 166.833 185.29 170.516C184.189 174.199 181.985 178.168 170.419 173.567C158.852 168.966 149.213 150.887 149.213 150.887" stroke="#263238" stroke-linecap="round" stroke-linejoin="round"/>
<path d="M183.638 132.181C179.507 133.299 174.69 132.473 172.897 125.161C171.104 117.85 174.69 110.041 177.028 109.323" stroke="#263238" stroke-linecap="round" stroke-linejoin="round"/>
<path d="M172.071 144.31C172.071 144.31 171.796 134.908 175.241 132.586" stroke="#263238" stroke-linecap="round" stroke-linejoin="round"/>
<path opacity="0.4" d="M71.6148 191.003C71.6148 191.003 61.5222 189.745 59.2704 185.231C57.4074 181.494 47.3094 195.491 35.3592 201.604C45.3492 191.419 56.0088 180.004 59.2704 174.355C62.1864 169.333 65.8746 160.618 69.0876 152.426C68.9256 159.219 65.3076 169.619 66.339 175.036C65.2338 175.328 64.2883 176.044 63.7071 177.028C63.126 178.013 62.956 179.186 63.234 180.295C64.0062 184.599 71.6148 191.003 71.6148 191.003Z" fill="#FFDA44"/>
<path d="M142.02 166.86C142.02 166.86 127.04 196.231 100.035 202.894C100.035 202.894 99.009 208.705 94.4406 211.199C91.9998 212.528 82.1556 227.286 73.4994 240.759" stroke="#263238" stroke-linecap="round" stroke-linejoin="round"/>
<path d="M25.6176 211.383C37.152 199.984 54.8802 181.91 59.2704 174.355C65.9124 162.923 76.5504 132.322 76.5504 132.322L117.59 86.6808" stroke="#263238" stroke-linecap="round" stroke-linejoin="round"/>
<path d="M94.1707 121.538C94.1707 121.538 100.478 127.186 102.271 132.338" stroke="#263238" stroke-linecap="round" stroke-linejoin="round"/>
<path d="M168.62 39.2688H100.759C98.7515 39.2688 97.1244 40.8959 97.1244 42.903V187.369C97.1244 189.376 98.7515 191.003 100.759 191.003H168.62C170.628 191.003 172.255 189.376 172.255 187.369V42.903C172.255 40.8959 170.628 39.2688 168.62 39.2688Z" fill="#263238"/>
<path d="M149.58 43.3998L148.144 46.0296C147.992 46.315 147.765 46.554 147.489 46.7213C147.212 46.8886 146.896 46.978 146.572 46.98H122.812C122.489 46.9783 122.173 46.8903 121.896 46.725C121.619 46.5598 121.391 46.3234 121.235 46.0404L119.804 43.4106C119.651 43.1264 119.423 42.8891 119.145 42.7237C118.868 42.5583 118.551 42.471 118.228 42.471H101.623C101.386 42.4717 101.152 42.5191 100.934 42.6105C100.715 42.7018 100.517 42.8354 100.351 43.0034C100.184 43.1715 100.052 43.3707 99.9631 43.5898C99.8737 43.8089 99.8284 44.0434 99.8298 44.28V186.3C99.8298 186.776 100.019 187.233 100.355 187.57C100.691 187.907 101.147 188.097 101.623 188.098H167.751C167.988 188.1 168.223 188.054 168.442 187.964C168.662 187.875 168.861 187.742 169.03 187.575C169.198 187.408 169.331 187.21 169.422 186.991C169.513 186.772 169.56 186.537 169.56 186.3V44.28C169.56 43.8031 169.371 43.3457 169.033 43.0085C168.696 42.6713 168.239 42.4818 167.762 42.4818H151.162C150.84 42.4787 150.524 42.5623 150.245 42.7238C149.967 42.8854 149.737 43.1189 149.58 43.3998Z" fill="#FFDA44" stroke="#263238" stroke-linecap="round" stroke-linejoin="round"/>
<path d="M129.535 44.6742C130.069 44.6742 130.502 44.2414 130.502 43.7076C130.502 43.1738 130.069 42.741 129.535 42.741C129.001 42.741 128.569 43.1738 128.569 43.7076C128.569 44.2414 129.001 44.6742 129.535 44.6742Z" stroke="white" stroke-miterlimit="10"/>
<path d="M140.805 43.7076C140.804 43.8259 140.768 43.9412 140.701 44.0391C140.635 44.137 140.541 44.213 140.431 44.2575C140.322 44.302 140.201 44.3131 140.085 44.2894C139.97 44.2657 139.863 44.2082 139.78 44.1241C139.697 44.0401 139.64 43.9333 139.617 43.8171C139.595 43.701 139.607 43.5808 139.652 43.4716C139.698 43.3624 139.775 43.2691 139.873 43.2034C139.972 43.1378 140.087 43.1028 140.206 43.1028C140.285 43.1028 140.363 43.1185 140.436 43.1489C140.509 43.1794 140.576 43.224 140.631 43.2802C140.687 43.3365 140.731 43.4032 140.761 43.4765C140.791 43.5499 140.806 43.6284 140.805 43.7076V43.7076Z" stroke="white" stroke-miterlimit="10"/>
<path d="M138.116 43.3296H132.241C132.191 43.3296 132.142 43.3394 132.097 43.3585C132.051 43.3775 132.01 43.4055 131.975 43.4406C131.941 43.4758 131.913 43.5175 131.895 43.5633C131.876 43.6092 131.867 43.6582 131.868 43.7076C131.868 43.8064 131.907 43.9012 131.977 43.9711C132.047 44.0409 132.142 44.0802 132.241 44.0802H138.116C138.215 44.0802 138.309 44.0409 138.379 43.9711C138.449 43.9012 138.488 43.8064 138.488 43.7076C138.489 43.6582 138.48 43.6092 138.462 43.5633C138.443 43.5175 138.416 43.4758 138.381 43.4406C138.347 43.4055 138.305 43.3775 138.26 43.3585C138.214 43.3394 138.165 43.3296 138.116 43.3296Z" fill="white"/>
<path d="M112.126 46.0728H105.791V48.762H112.126V46.0728Z" stroke="#263238" stroke-linecap="round" stroke-linejoin="round"/>
<path d="M113.103 46.5264H112.12V48.3138H113.103V46.5264Z" stroke="#263238" stroke-linecap="round" stroke-linejoin="round"/>
<path d="M157.01 47.79H155.887V48.7674H157.01V47.79Z" stroke="#263238" stroke-linecap="round" stroke-linejoin="round"/>
<path d="M159.203 46.8072H158.08V48.7674H159.203V46.8072Z" stroke="#263238" stroke-linecap="round" stroke-linejoin="round"/>
<path d="M161.395 45.8244H160.272V48.762H161.395V45.8244Z" stroke="#263238" stroke-linecap="round" stroke-linejoin="round"/>
<path d="M163.582 44.8416H162.459V48.762H163.582V44.8416Z" stroke="#263238" stroke-linecap="round" stroke-linejoin="round"/>
<path opacity="0.5" d="M169.096 73.8504H100.278V139.487H169.096V73.8504Z" fill="white"/>
<path d="M119.286 63.369V64.5084C119.286 65.9178 118.611 66.6684 117.229 66.6684H116.575V69.9678H115.193V61.1928H117.229C118.611 61.1928 119.286 61.9596 119.286 63.369ZM116.586 62.451V65.4264H117.239C117.677 65.4264 117.914 65.2266 117.914 64.6002V63.2772C117.914 62.6508 117.677 62.451 117.239 62.451H116.586Z" fill="#263238"/>
<path d="M124.238 69.984H122.845L122.602 68.391H120.911L120.668 69.984H119.399L120.809 61.1928H122.828L124.238 69.984ZM121.084 67.1976H122.418L121.765 62.7534H121.738L121.084 67.1976Z" fill="#263238"/>
<path d="M125.555 67.0734L123.811 61.1928H125.28L126.322 65.1996H126.349L127.391 61.1928H128.709L126.965 67.0734V69.984H125.582L125.555 67.0734Z" fill="#263238"/>
<path d="M132.149 67.4352H132.176L133.105 61.1928H135.027V69.984H133.72V63.6822L132.791 69.984H131.485L130.48 63.7686V69.984H129.222V61.1928H131.144L132.149 67.4352Z" fill="#263238"/>
<path d="M137.414 64.8972H139.32V66.1554H137.425V68.7312H139.811V69.984H136.031V61.1928H139.811V62.451H137.425L137.414 64.8972Z" fill="#263238"/>
<path d="M141.912 63.6174H141.885V69.984H140.643V61.1928H142.376L143.77 66.4578V61.1928H145.001V69.984H143.586L141.912 63.6174Z" fill="#263238"/>
<path d="M145.616 61.1928H149.888V62.451H148.441V69.984H147.058V62.451H145.616V61.1928Z" fill="#263238"/>
<path d="M152.35 61.0956C153.689 61.0956 154.381 61.9002 154.381 63.3042V63.5796H153.074V63.2178C153.074 62.586 152.825 62.3484 152.383 62.3484C151.94 62.3484 151.697 62.586 151.697 63.2178C151.697 63.8496 151.972 64.3356 152.874 65.124C154.03 66.1446 154.397 66.8682 154.397 67.8726C154.397 69.282 153.689 70.0866 152.334 70.0866C150.979 70.0866 150.277 69.282 150.277 67.8726V67.3326H151.583V67.9644C151.583 68.5908 151.859 68.8176 152.296 68.8176C152.734 68.8176 153.014 68.5908 153.014 67.9644C153.014 67.338 152.739 66.8466 151.832 66.0528C150.676 65.0376 150.314 64.3086 150.314 63.3042C150.314 61.9002 151.006 61.0956 152.35 61.0956Z" fill="#263238"/>
<path d="M163.582 81.8046H105.791V90.4392H163.582V81.8046Z" fill="white" stroke="#263238" stroke-linecap="round" stroke-linejoin="round"/>
<path d="M163.582 97.9992H105.791V106.634H163.582V97.9992Z" fill="white" stroke="#263238" stroke-linecap="round" stroke-linejoin="round"/>
<path d="M163.582 112.725H105.791V121.36H163.582V112.725Z" fill="white" stroke="#263238" stroke-linecap="round" stroke-linejoin="round"/>
<path d="M133.153 124.508H105.791V134.617H133.153V124.508Z" fill="white" stroke="#263238" stroke-linecap="round" stroke-linejoin="round"/>
<path d="M163.588 124.508H136.226V134.617H163.588V124.508Z" fill="white" stroke="#263238" stroke-linecap="round" stroke-linejoin="round"/>
<path d="M109.393 80.298V80.5302H107.584V77.976H109.339V78.2082H107.86V79.1208H109.177V79.3476H107.86V80.298H109.393Z" fill="#263238"/>
<path d="M113.141 79.4178V80.5302H112.86V79.4502C112.86 79.0452 112.655 78.8346 112.32 78.8346C112.23 78.8308 112.14 78.8467 112.057 78.8811C111.973 78.9155 111.898 78.9677 111.837 79.034C111.776 79.1003 111.73 79.1791 111.703 79.265C111.675 79.3508 111.666 79.4417 111.677 79.5312V80.5356H111.418V79.4556C111.418 79.0506 111.213 78.84 110.878 78.84C110.788 78.8362 110.698 78.8521 110.615 78.8865C110.532 78.9209 110.457 78.9731 110.396 79.0394C110.334 79.1057 110.288 79.1845 110.261 79.2704C110.233 79.3562 110.225 79.4471 110.236 79.5366V80.541H109.976V78.624H110.225V78.975C110.299 78.8557 110.403 78.7585 110.528 78.6939C110.652 78.6292 110.792 78.5995 110.932 78.6078C111.074 78.5959 111.215 78.6285 111.337 78.7011C111.459 78.7738 111.556 78.8828 111.613 79.0128C111.691 78.883 111.804 78.7768 111.938 78.7055C112.072 78.6342 112.222 78.6005 112.374 78.6078C112.48 78.6007 112.587 78.6171 112.686 78.6559C112.785 78.6947 112.875 78.7549 112.948 78.8323C113.021 78.9097 113.077 79.0023 113.11 79.1035C113.143 79.2047 113.154 79.3121 113.141 79.4178Z" fill="#263238"/>
<path d="M115.295 79.3422V80.5302H115.047V80.2332C114.974 80.3401 114.874 80.4259 114.758 80.4818C114.641 80.5378 114.512 80.5619 114.383 80.5518C113.951 80.5518 113.686 80.325 113.686 80.0118C113.686 79.6986 113.875 79.4718 114.426 79.4718H115.02V79.353C115.02 79.0236 114.831 78.8454 114.48 78.8454C114.247 78.8418 114.021 78.9223 113.843 79.0722L113.724 78.8778C113.948 78.7047 114.224 78.6133 114.507 78.6186C114.609 78.6019 114.713 78.6086 114.812 78.6381C114.91 78.6676 115.001 78.7191 115.077 78.7888C115.153 78.8585 115.212 78.9445 115.25 79.0404C115.288 79.1362 115.303 79.2394 115.295 79.3422ZM115.036 79.9578V79.6392H114.431C114.059 79.6392 113.94 79.785 113.94 79.9848C113.94 80.1846 114.118 80.3466 114.426 80.3466C114.553 80.3503 114.678 80.315 114.784 80.2455C114.89 80.1759 114.973 80.0756 115.02 79.9578H115.036Z" fill="#263238"/>
<path d="M115.938 78.0084C115.939 77.9592 115.96 77.9125 115.995 77.8782C116.031 77.8439 116.078 77.8248 116.127 77.8248C116.176 77.8248 116.222 77.8441 116.257 77.8786C116.291 77.913 116.311 77.9597 116.311 78.0084C116.311 78.0571 116.291 78.1038 116.257 78.1382C116.222 78.1727 116.176 78.192 116.127 78.192C116.078 78.192 116.031 78.1729 115.995 78.1386C115.96 78.1043 115.939 78.0576 115.938 78.0084ZM115.997 78.6132H116.257V80.5302H115.997V78.6132Z" fill="#263238"/>
<path d="M116.98 77.8248H117.239V80.5248H116.98V77.8248Z" fill="#263238"/>
<path d="M111.181 86.94V87.1722H109.372V84.618H111.127V84.8502H109.62V85.7574H110.943V85.9896H109.62V86.94H111.181Z" fill="#263238"/>
<path d="M114.928 86.049V87.1614H114.669V86.0814C114.669 85.6764 114.464 85.4658 114.129 85.4658C114.039 85.4612 113.949 85.4763 113.866 85.5101C113.783 85.5439 113.708 85.5955 113.646 85.6614C113.585 85.7273 113.539 85.8059 113.511 85.8915C113.484 85.9771 113.475 86.0677 113.486 86.157V87.1668H113.227V86.0868C113.227 85.6818 113.022 85.4712 112.687 85.4712C112.597 85.4666 112.508 85.4817 112.424 85.5155C112.341 85.5493 112.266 85.601 112.205 85.6668C112.143 85.7327 112.097 85.8113 112.07 85.8969C112.042 85.9825 112.033 86.0731 112.045 86.1624V87.1722H111.78V85.2498H112.028V85.6008C112.103 85.4829 112.208 85.3871 112.333 85.3235C112.457 85.2599 112.596 85.2307 112.736 85.239C112.877 85.2287 113.018 85.262 113.14 85.3344C113.261 85.4069 113.358 85.5149 113.416 85.644C113.494 85.5138 113.607 85.4073 113.741 85.3359C113.875 85.2646 114.026 85.2311 114.178 85.239C114.283 85.2343 114.387 85.2526 114.485 85.2925C114.582 85.3324 114.669 85.393 114.741 85.4701C114.812 85.5472 114.866 85.6389 114.898 85.7389C114.931 85.8388 114.941 85.9447 114.928 86.049Z" fill="#263238"/>
<path d="M117.077 85.9734V87.1614H116.829V86.8644C116.757 86.9707 116.658 87.0558 116.542 87.1109C116.427 87.1659 116.298 87.189 116.17 87.1776C115.738 87.1776 115.468 86.9508 115.468 86.6376C115.468 86.3244 115.663 86.0976 116.213 86.0976H116.824V85.9842C116.824 85.6548 116.635 85.4766 116.284 85.4766C116.049 85.4736 115.822 85.554 115.641 85.7034L115.528 85.509C115.75 85.3327 116.027 85.2409 116.311 85.2498C116.411 85.2367 116.512 85.2461 116.608 85.2772C116.704 85.3083 116.792 85.3603 116.866 85.4296C116.939 85.4989 116.996 85.5836 117.033 85.6777C117.069 85.7717 117.085 85.8727 117.077 85.9734ZM116.824 86.5836V86.2704H116.219C115.846 86.2704 115.727 86.4162 115.727 86.616C115.727 86.8158 115.906 86.9778 116.213 86.9778C116.344 86.9853 116.473 86.9512 116.583 86.8803C116.693 86.8094 116.777 86.7055 116.824 86.5836Z" fill="#263238"/>
<path d="M117.72 84.6342C117.721 84.585 117.742 84.5383 117.777 84.504C117.812 84.4697 117.86 84.4506 117.909 84.4506C117.934 84.4499 117.958 84.4541 117.981 84.463C118.004 84.4719 118.025 84.4853 118.042 84.5024C118.06 84.5195 118.074 84.54 118.084 84.5626C118.093 84.5853 118.098 84.6096 118.098 84.6342C118.098 84.6843 118.078 84.7324 118.043 84.7678C118.007 84.8033 117.959 84.8232 117.909 84.8232C117.859 84.8232 117.811 84.8033 117.775 84.7678C117.74 84.7324 117.72 84.6843 117.72 84.6342ZM117.779 85.239H118.039V87.1614H117.779V85.239Z" fill="#263238"/>
<path d="M118.768 84.4506H119.021V87.1506H118.768V84.4506Z" fill="#263238"/>
<path d="M121.5 86.049V87.1614H121.241V86.0814C121.252 86.0016 121.246 85.9202 121.222 85.8433C121.198 85.7664 121.157 85.6958 121.102 85.6367C121.047 85.5777 120.979 85.5317 120.904 85.5021C120.829 85.4725 120.749 85.4601 120.668 85.4658C120.576 85.4581 120.484 85.4708 120.397 85.5031C120.311 85.5353 120.233 85.5863 120.168 85.6524C120.104 85.7184 120.054 85.7979 120.024 85.8851C119.994 85.9724 119.984 86.0652 119.993 86.157V87.1668H119.734V85.2444H119.983V85.6008C120.061 85.4805 120.169 85.3832 120.297 85.3186C120.426 85.2541 120.568 85.2248 120.712 85.2336C120.82 85.2249 120.928 85.2403 121.03 85.2786C121.131 85.3169 121.223 85.3772 121.298 85.4552C121.374 85.5331 121.431 85.6268 121.466 85.7295C121.501 85.8321 121.512 85.9413 121.5 86.049Z" fill="#263238"/>
<path d="M123.66 85.9734V87.1614H123.412V86.8644C123.34 86.9707 123.241 87.0558 123.125 87.1109C123.009 87.1659 122.881 87.189 122.753 87.1776C122.315 87.1776 122.051 86.9508 122.051 86.6376C122.051 86.3244 122.24 86.0976 122.791 86.0976H123.401V85.9842C123.401 85.6548 123.217 85.4766 122.861 85.4766C122.628 85.473 122.402 85.5535 122.224 85.7034L122.105 85.509C122.327 85.3335 122.605 85.2418 122.888 85.2498C122.988 85.2358 123.091 85.2445 123.187 85.2752C123.284 85.3059 123.373 85.3579 123.447 85.4272C123.521 85.4966 123.578 85.5817 123.615 85.6762C123.652 85.7707 123.667 85.8722 123.66 85.9734ZM123.401 86.5836V86.2704H122.801C122.429 86.2704 122.305 86.4162 122.305 86.616C122.305 86.8158 122.483 86.9778 122.791 86.9778C122.922 86.9865 123.052 86.9529 123.163 86.882C123.274 86.811 123.359 86.7064 123.406 86.5836H123.401Z" fill="#263238"/>
<path d="M127.537 86.049V87.1614H127.278V86.0814C127.278 85.6764 127.073 85.4658 126.738 85.4658C126.648 85.4612 126.558 85.4763 126.475 85.5101C126.392 85.5439 126.317 85.5955 126.255 85.6614C126.194 85.7273 126.148 85.8058 126.12 85.8915C126.093 85.9771 126.084 86.0677 126.095 86.157V87.1668H125.82V86.0868C125.82 85.6818 125.615 85.4712 125.28 85.4712C125.19 85.4666 125.1 85.4817 125.017 85.5155C124.934 85.5493 124.859 85.6009 124.797 85.6668C124.736 85.7327 124.69 85.8112 124.662 85.8969C124.635 85.9825 124.626 86.0731 124.637 86.1624V87.1722H124.378V85.2498H124.627V85.6008C124.702 85.4829 124.807 85.3871 124.931 85.3235C125.055 85.2599 125.195 85.2307 125.334 85.239C125.476 85.2271 125.617 85.2597 125.739 85.3323C125.861 85.405 125.957 85.5139 126.014 85.644C126.093 85.5142 126.205 85.408 126.339 85.3367C126.473 85.2654 126.624 85.2316 126.776 85.239C126.882 85.2327 126.988 85.2497 127.086 85.2889C127.185 85.3281 127.274 85.3884 127.346 85.4657C127.419 85.543 127.474 85.6353 127.507 85.7361C127.54 85.8369 127.55 85.9437 127.537 86.049Z" fill="#263238"/>
<path d="M129.919 86.2812H128.299C128.312 86.4695 128.4 86.6445 128.543 86.768C128.686 86.8915 128.872 86.9534 129.06 86.94C129.171 86.943 129.281 86.9219 129.382 86.8781C129.484 86.8342 129.575 86.7688 129.649 86.6862L129.794 86.8536C129.657 86.9983 129.479 87.0991 129.284 87.1433C129.089 87.1876 128.886 87.1734 128.699 87.1025C128.512 87.0316 128.351 86.9071 128.234 86.7447C128.118 86.5822 128.052 86.3891 128.045 86.1894C128.038 86.0627 128.058 85.9361 128.102 85.8173C128.146 85.6984 128.215 85.5901 128.303 85.4989C128.391 85.4077 128.497 85.3356 128.614 85.2872C128.732 85.2388 128.858 85.215 128.984 85.2174C129.111 85.2149 129.236 85.2387 129.353 85.2872C129.47 85.3357 129.575 85.408 129.662 85.4994C129.75 85.5907 129.817 85.6992 129.86 85.818C129.903 85.9368 129.921 86.0633 129.913 86.1894C129.913 86.1894 129.919 86.2542 129.919 86.2812ZM128.299 86.0868H129.659C129.659 85.9064 129.588 85.7333 129.46 85.6057C129.333 85.4781 129.159 85.4064 128.979 85.4064C128.799 85.4064 128.625 85.4781 128.498 85.6057C128.37 85.7333 128.299 85.9064 128.299 86.0868Z" fill="#263238"/>
<path d="M133.677 86.1948C133.677 86.8158 133.445 87.1776 133.067 87.1776C133.014 87.1806 132.96 87.1725 132.91 87.154C132.86 87.1354 132.814 87.1068 132.776 87.0698C132.737 87.0328 132.707 86.9883 132.686 86.939C132.666 86.8898 132.656 86.8368 132.656 86.7834C132.581 86.9083 132.474 87.0107 132.346 87.08C132.218 87.1494 132.073 87.1831 131.927 87.1776C131.678 87.1776 131.439 87.0786 131.263 86.9024C131.087 86.7262 130.988 86.4872 130.988 86.238C130.988 85.9888 131.087 85.7498 131.263 85.5736C131.439 85.3974 131.678 85.2984 131.927 85.2984C132.071 85.2923 132.214 85.3245 132.341 85.3919C132.468 85.4593 132.575 85.5594 132.651 85.6818V85.32H132.889V86.7024C132.889 86.9076 132.991 86.9832 133.115 86.9832C133.337 86.9832 133.483 86.7024 133.483 86.211C133.488 86.0159 133.453 85.8218 133.379 85.6412C133.305 85.4606 133.194 85.2976 133.053 85.1627C132.912 85.0278 132.744 84.924 132.561 84.8581C132.377 84.7921 132.181 84.7656 131.987 84.78C131.794 84.78 131.603 84.818 131.425 84.8918C131.247 84.9656 131.085 85.0738 130.948 85.2102C130.812 85.3466 130.704 85.5085 130.63 85.6867C130.556 85.8649 130.518 86.0559 130.518 86.2488C130.518 86.4417 130.556 86.6327 130.63 86.8109C130.704 86.9891 130.812 87.151 130.948 87.2874C131.085 87.4238 131.247 87.532 131.425 87.6058C131.603 87.6796 131.794 87.7176 131.987 87.7176C132.23 87.717 132.47 87.6616 132.689 87.5556L132.748 87.7338C132.51 87.8458 132.25 87.903 131.987 87.9012C131.549 87.9012 131.128 87.7271 130.818 87.4172C130.509 87.1073 130.334 86.6871 130.334 86.2488C130.334 85.8106 130.509 85.3903 130.818 85.0804C131.128 84.7705 131.549 84.5964 131.987 84.5964C132.205 84.5806 132.424 84.6105 132.63 84.684C132.836 84.7575 133.025 84.8731 133.184 85.0235C133.343 85.1738 133.469 85.3556 133.554 85.5572C133.639 85.7589 133.681 85.976 133.677 86.1948ZM132.651 86.2326C132.66 86.1363 132.648 86.0394 132.617 85.9478C132.586 85.8563 132.536 85.7722 132.471 85.7009C132.406 85.6296 132.326 85.5727 132.238 85.5338C132.149 85.4948 132.054 85.4747 131.957 85.4747C131.86 85.4747 131.765 85.4948 131.676 85.5338C131.588 85.5727 131.509 85.6296 131.443 85.7009C131.378 85.7722 131.328 85.8563 131.297 85.9478C131.266 86.0394 131.255 86.1363 131.263 86.2326C131.255 86.3289 131.266 86.4259 131.297 86.5174C131.328 86.6089 131.378 86.693 131.443 86.7643C131.509 86.8356 131.588 86.8925 131.676 86.9314C131.765 86.9704 131.86 86.9905 131.957 86.9905C132.054 86.9905 132.149 86.9704 132.238 86.9314C132.326 86.8925 132.406 86.8356 132.471 86.7643C132.536 86.693 132.586 86.6089 132.617 86.5174C132.648 86.4259 132.66 86.3289 132.651 86.2326Z" fill="#263238"/>
<path d="M135.891 86.2812H134.271C134.276 86.3749 134.3 86.4665 134.341 86.5509C134.382 86.6353 134.44 86.7108 134.51 86.773C134.58 86.8352 134.662 86.8829 134.751 86.9134C134.839 86.944 134.933 86.9567 135.027 86.9508C135.138 86.9538 135.248 86.9327 135.349 86.8889C135.451 86.845 135.542 86.7796 135.616 86.697L135.761 86.8644C135.624 87.0091 135.446 87.1099 135.251 87.1541C135.056 87.1984 134.853 87.1842 134.666 87.1133C134.479 87.0423 134.318 86.9179 134.201 86.7555C134.085 86.593 134.019 86.3999 134.012 86.2002C134.005 86.0735 134.025 85.9469 134.069 85.828C134.113 85.7092 134.182 85.6009 134.27 85.5097C134.358 85.4185 134.464 85.3464 134.581 85.298C134.699 85.2496 134.825 85.2258 134.951 85.2282C135.078 85.2257 135.203 85.2495 135.32 85.298C135.437 85.3465 135.542 85.4188 135.629 85.5101C135.717 85.6015 135.784 85.71 135.827 85.8288C135.87 85.9476 135.888 86.0741 135.88 86.2002C135.88 86.2002 135.891 86.2542 135.891 86.2812ZM134.271 86.0868H135.632C135.632 85.9064 135.56 85.7333 135.432 85.6057C135.305 85.4781 135.132 85.4064 134.951 85.4064C134.771 85.4064 134.598 85.4781 134.47 85.6057C134.343 85.7333 134.271 85.9064 134.271 86.0868Z" fill="#263238"/>
<path d="M139.595 86.049V87.1614H139.32V86.0814C139.32 85.6764 139.115 85.4658 138.78 85.4658C138.69 85.4612 138.6 85.4763 138.517 85.5101C138.434 85.5439 138.359 85.5955 138.297 85.6614C138.236 85.7273 138.19 85.8059 138.162 85.8915C138.135 85.9771 138.126 86.0677 138.137 86.157V87.1668H137.878V86.0868C137.878 85.6818 137.673 85.4712 137.338 85.4712C137.248 85.4666 137.159 85.4817 137.075 85.5155C136.992 85.5493 136.917 85.601 136.856 85.6668C136.794 85.7327 136.748 85.8113 136.721 85.8969C136.693 85.9825 136.684 86.0731 136.696 86.1624V87.1722H136.436V85.2498H136.685V85.6008C136.759 85.4833 136.863 85.3878 136.986 85.3242C137.11 85.2605 137.248 85.2311 137.387 85.239C137.529 85.2283 137.671 85.2614 137.793 85.3338C137.916 85.4063 138.013 85.5145 138.073 85.644C138.149 85.5138 138.261 85.4072 138.394 85.3357C138.527 85.2643 138.678 85.2309 138.829 85.239C138.935 85.2319 139.041 85.2483 139.141 85.2871C139.24 85.3259 139.329 85.3862 139.403 85.4635C139.476 85.5409 139.531 85.6335 139.564 85.7347C139.598 85.8359 139.608 85.9433 139.595 86.049Z" fill="#263238"/>
<path d="M141.745 85.9734V87.1614H141.48V86.8644C141.408 86.9703 141.309 87.0551 141.193 87.1101C141.077 87.1651 140.949 87.1884 140.821 87.1776C140.384 87.1776 140.119 86.9508 140.119 86.6376C140.119 86.3244 140.308 86.0976 140.859 86.0976H141.48V85.9842C141.48 85.6548 141.296 85.4766 140.94 85.4766C140.707 85.473 140.481 85.5535 140.303 85.7034L140.184 85.509C140.407 85.3335 140.684 85.2418 140.967 85.2498C141.068 85.235 141.171 85.243 141.268 85.2733C141.366 85.3036 141.455 85.3554 141.53 85.4249C141.604 85.4943 141.662 85.5797 141.7 85.6747C141.737 85.7696 141.752 85.8717 141.745 85.9734ZM141.485 86.5836V86.2704H140.886C140.513 86.2704 140.389 86.4162 140.389 86.616C140.389 86.8158 140.567 86.9778 140.875 86.9778C141.005 86.9842 141.133 86.9495 141.241 86.8787C141.35 86.8079 141.434 86.7046 141.48 86.5836H141.485Z" fill="#263238"/>
<path d="M142.393 84.6342C142.393 84.5968 142.404 84.5603 142.424 84.5292C142.445 84.4981 142.475 84.4739 142.509 84.4596C142.544 84.4453 142.582 84.4415 142.618 84.4488C142.655 84.4561 142.689 84.4741 142.715 84.5005C142.742 84.527 142.76 84.5607 142.767 84.5973C142.774 84.634 142.771 84.672 142.756 84.7065C142.742 84.7411 142.718 84.7706 142.687 84.7913C142.656 84.8121 142.619 84.8232 142.582 84.8232C142.531 84.8232 142.483 84.8033 142.448 84.7678C142.412 84.7324 142.393 84.6843 142.393 84.6342ZM142.447 85.239H142.706V87.1614H142.447V85.239Z" fill="#263238"/>
<path d="M143.429 84.4506H143.689V87.1506H143.429V84.4506Z" fill="#263238"/>
<path d="M144.245 86.9778C144.244 86.9521 144.249 86.9265 144.258 86.9025C144.268 86.8786 144.282 86.8569 144.3 86.8387C144.318 86.8205 144.34 86.8062 144.364 86.7967C144.388 86.7872 144.413 86.7827 144.439 86.7834C144.491 86.7834 144.54 86.8039 144.577 86.8403C144.613 86.8768 144.634 86.9262 144.634 86.9778C144.634 87.0299 144.613 87.0799 144.577 87.1172C144.541 87.1545 144.491 87.1762 144.439 87.1776C144.413 87.1776 144.388 87.1724 144.364 87.1623C144.34 87.1522 144.318 87.1374 144.3 87.1188C144.282 87.1001 144.267 87.0781 144.258 87.0539C144.249 87.0296 144.244 87.0038 144.245 86.9778Z" fill="#263238"/>
<path d="M144.936 86.2002C144.932 86.0701 144.955 85.9406 145.004 85.8199C145.052 85.6991 145.125 85.5897 145.218 85.4985C145.311 85.4072 145.421 85.3361 145.543 85.2896C145.664 85.2431 145.794 85.2222 145.924 85.2282C146.072 85.2184 146.221 85.2483 146.353 85.3147C146.486 85.3812 146.599 85.4818 146.68 85.6062L146.486 85.7358C146.425 85.649 146.344 85.5782 146.25 85.5293C146.156 85.4804 146.052 85.4549 145.946 85.455C145.758 85.4709 145.584 85.5566 145.457 85.6951C145.329 85.8336 145.259 86.0148 145.259 86.2029C145.259 86.3909 145.329 86.5722 145.457 86.7107C145.584 86.8491 145.758 86.9348 145.946 86.9508C146.052 86.9518 146.157 86.9267 146.251 86.8777C146.345 86.8288 146.426 86.7574 146.486 86.67L146.68 86.7996C146.598 86.9232 146.485 87.0232 146.353 87.0895C146.22 87.1558 146.072 87.1862 145.924 87.1776C145.794 87.1836 145.663 87.1626 145.542 87.1157C145.42 87.0689 145.309 86.9973 145.216 86.9055C145.123 86.8136 145.05 86.7035 145.002 86.5822C144.954 86.4608 144.931 86.3307 144.936 86.2002Z" fill="#263238"/>
<path d="M146.961 86.2002C146.961 86.0069 147.018 85.8179 147.126 85.6572C147.233 85.4965 147.386 85.3712 147.564 85.2972C147.743 85.2232 147.939 85.2039 148.129 85.2416C148.319 85.2793 148.493 85.3724 148.63 85.5091C148.766 85.6458 148.859 85.8199 148.897 86.0095C148.935 86.1991 148.915 86.3956 148.841 86.5742C148.767 86.7528 148.642 86.9055 148.481 87.0129C148.321 87.1203 148.132 87.1776 147.938 87.1776C147.809 87.1821 147.68 87.1599 147.559 87.1124C147.438 87.0649 147.329 86.9931 147.237 86.9014C147.146 86.8097 147.074 86.7002 147.026 86.5795C146.979 86.4589 146.957 86.3298 146.961 86.2002ZM148.651 86.2002C148.647 86.058 148.6 85.9204 148.518 85.8046C148.435 85.6889 148.32 85.6004 148.187 85.5502C148.053 85.5001 147.908 85.4906 147.77 85.5229C147.631 85.5553 147.506 85.6281 147.409 85.732C147.311 85.8359 147.247 85.9664 147.225 86.1067C147.202 86.2471 147.221 86.3912 147.28 86.5205C147.339 86.6499 147.435 86.7589 147.556 86.8336C147.677 86.9082 147.818 86.9453 147.96 86.94C148.055 86.9387 148.148 86.9183 148.234 86.88C148.321 86.8418 148.399 86.7864 148.463 86.7173C148.528 86.6482 148.578 86.5668 148.61 86.478C148.642 86.3891 148.656 86.2946 148.651 86.2002Z" fill="#263238"/>
<path d="M152.609 86.049V87.1614H152.35V86.0814C152.35 85.6764 152.145 85.4658 151.81 85.4658C151.72 85.4612 151.631 85.4763 151.547 85.5101C151.464 85.5439 151.389 85.5955 151.328 85.6614C151.266 85.7273 151.22 85.8059 151.193 85.8915C151.165 85.9771 151.156 86.0677 151.168 86.157V87.1668H150.908V86.0868C150.908 85.6818 150.703 85.4712 150.368 85.4712C150.279 85.4666 150.189 85.4817 150.105 85.5155C150.022 85.5493 149.947 85.601 149.886 85.6668C149.825 85.7327 149.779 85.8113 149.751 85.8969C149.723 85.9825 149.715 86.0731 149.726 86.1624V87.1722H149.467V85.2498H149.715V85.6008C149.789 85.4833 149.893 85.3878 150.017 85.3242C150.14 85.2605 150.278 85.2311 150.417 85.239C150.559 85.2283 150.701 85.2614 150.824 85.3338C150.946 85.4063 151.044 85.5145 151.103 85.644C151.18 85.5142 151.291 85.4079 151.425 85.3365C151.558 85.2652 151.708 85.2315 151.859 85.239C151.964 85.2343 152.069 85.2526 152.166 85.2925C152.263 85.3324 152.35 85.393 152.422 85.4701C152.493 85.5472 152.547 85.6389 152.579 85.7389C152.612 85.8388 152.622 85.9447 152.609 86.049Z" fill="#263238"/>
<path d="M109.831 102.362L110.284 102.622L110.203 102.773L109.744 102.508V103.048H109.577V102.508L109.118 102.773L109.031 102.622L109.49 102.362L109.031 102.109L109.118 101.952L109.577 102.222V101.682H109.744V102.222L110.203 101.952L110.284 102.109L109.831 102.362Z" fill="#263238"/>
<path d="M111.316 102.362L111.769 102.622L111.683 102.773L111.229 102.508V103.048H111.056V102.508L110.603 102.773L110.511 102.622L110.97 102.362L110.511 102.109L110.603 101.952L111.056 102.222V101.682H111.24V102.222L111.694 101.952L111.78 102.109L111.316 102.362Z" fill="#263238"/>
<path d="M112.795 102.362L113.249 102.622L113.162 102.773L112.709 102.508V103.048H112.541V102.508L112.088 102.773L112.001 102.622L112.455 102.362L112.001 102.109L112.088 101.952L112.541 102.222V101.682H112.709V102.222L113.162 101.952L113.249 102.109L112.795 102.362Z" fill="#263238"/>
<path d="M114.275 102.362L114.728 102.622L114.647 102.773L114.188 102.508V103.048H114.021V102.508L113.562 102.773L113.476 102.622L113.935 102.362L113.476 102.109L113.562 101.952L114.021 102.222V101.682H114.188V102.222L114.647 101.952L114.728 102.109L114.275 102.362Z" fill="#263238"/>
<path d="M115.76 102.362L116.213 102.622L116.127 102.773L115.673 102.508V103.048H115.501V102.508L115.047 102.773L114.955 102.622L115.414 102.362L114.955 102.109L115.047 101.952L115.501 102.222V101.682H115.673V102.222L116.127 101.952L116.213 102.109L115.76 102.362Z" fill="#263238"/>
<path d="M117.239 102.362L117.693 102.622L117.607 102.773L117.153 102.508V103.048H116.986V102.508L116.532 102.773L116.446 102.622L116.899 102.362L116.446 102.109L116.532 101.952L116.986 102.222V101.682H117.18V102.222L117.634 101.952L117.72 102.109L117.239 102.362Z" fill="#263238"/>
<path d="M118.719 102.362L119.173 102.622L119.092 102.773L118.633 102.508V103.048H118.465V102.508L118.006 102.773L117.92 102.622L118.379 102.362L117.92 102.109L118.006 101.952L118.465 102.222V101.682H118.633V102.222L119.092 101.952L119.173 102.109L118.719 102.362Z" fill="#263238"/>
<path d="M120.204 102.362L120.658 102.622L120.571 102.773L120.112 102.508V103.048H119.945V102.508L119.491 102.773L119.399 102.622L119.858 102.362L119.399 102.109L119.491 101.952L119.945 102.222V101.682H120.112V102.222L120.571 101.952L120.658 102.109L120.204 102.362Z" fill="#263238"/>
<path d="M121.684 102.362L122.137 102.622L122.051 102.773L121.597 102.508V103.048H121.43V102.508L120.976 102.773L120.89 102.622L121.343 102.362L120.89 102.109L120.976 101.952L121.43 102.222V101.682H121.597V102.222L122.051 101.952L122.137 102.109L121.684 102.362Z" fill="#263238"/>
<path d="M123.163 102.362L123.617 102.622L123.536 102.773L123.077 102.508V103.048H122.909V102.508L122.45 102.773L122.364 102.622L122.818 102.362L122.364 102.109L122.45 101.952L122.909 102.222V101.682H123.077V102.222L123.536 101.952L123.617 102.109L123.163 102.362Z" fill="#263238"/>
<path d="M124.648 102.362L125.096 102.622L125.015 102.773L124.556 102.508V103.048H124.389V102.508L123.935 102.773L123.844 102.622L124.303 102.362L123.844 102.109L123.935 101.952L124.389 102.222V101.682H124.556V102.222L125.015 101.952L125.096 102.109L124.648 102.362Z" fill="#263238"/>
<path d="M109.588 95.04C109.588 95.58 109.193 95.9148 108.545 95.9148H107.86V96.7194H107.584V94.176H108.54C109.193 94.176 109.588 94.5 109.588 95.04ZM109.318 95.04C109.318 94.6296 109.048 94.3974 108.535 94.3974H107.86V95.6772H108.54C109.048 95.688 109.318 95.4558 109.318 95.04Z" fill="#263238"/>
<path d="M111.548 95.5422V96.7302H111.299V96.4332C111.226 96.5395 111.126 96.6245 111.01 96.6795C110.893 96.7346 110.764 96.7576 110.635 96.7464C110.203 96.7464 109.939 96.525 109.939 96.2064C109.939 95.8878 110.128 95.6664 110.678 95.6664H111.289V95.553C111.289 95.2236 111.1 95.0454 110.749 95.0454C110.516 95.0418 110.29 95.1223 110.111 95.2722L109.993 95.0778C110.215 94.9023 110.492 94.8106 110.776 94.8186C110.876 94.8046 110.978 94.8133 111.075 94.844C111.172 94.8747 111.26 94.9267 111.334 94.996C111.408 95.0654 111.466 95.1505 111.503 95.245C111.54 95.3395 111.555 95.441 111.548 95.5422ZM111.289 96.1524V95.8392H110.7C110.327 95.8392 110.209 95.985 110.209 96.1848C110.209 96.3846 110.387 96.5466 110.695 96.5466C110.822 96.5506 110.948 96.5149 111.054 96.4442C111.161 96.3736 111.243 96.2716 111.289 96.1524Z" fill="#263238"/>
<path d="M111.985 96.5142L112.099 96.309C112.299 96.4501 112.539 96.5256 112.784 96.525C113.146 96.525 113.297 96.4008 113.297 96.2064C113.297 95.7096 112.055 96.1038 112.055 95.3424C112.055 95.0292 112.325 94.8024 112.811 94.8024C113.05 94.7993 113.285 94.8609 113.492 94.9806L113.378 95.1858C113.21 95.0763 113.012 95.0199 112.811 95.0238C112.466 95.0238 112.315 95.1588 112.315 95.3424C112.315 95.8824 113.557 95.472 113.557 96.2064C113.557 96.5412 113.265 96.7464 112.763 96.7464C112.485 96.7554 112.212 96.6739 111.985 96.5142Z" fill="#263238"/>
<path d="M113.767 96.5142L113.886 96.309C114.085 96.4507 114.323 96.5263 114.566 96.525C114.934 96.525 115.106 96.4008 115.106 96.2064C115.106 95.7096 113.864 96.1038 113.864 95.3424C113.864 95.0292 114.134 94.8024 114.626 94.8024C114.863 94.7987 115.096 94.8603 115.301 94.9806L115.187 95.1858C115.027 95.0811 114.839 95.0248 114.647 95.0238C114.296 95.0238 114.145 95.1588 114.145 95.3424C114.145 95.8824 115.387 95.472 115.387 96.2064C115.387 96.5412 115.096 96.7464 114.599 96.7464C114.303 96.7672 114.009 96.6852 113.767 96.5142Z" fill="#263238"/>
<path d="M118.6 94.8132L117.871 96.7302H117.628L117.023 95.1588L116.419 96.7302H116.17L115.452 94.8132H115.7L116.3 96.4332L116.915 94.8132H117.142L117.752 96.4332L118.363 94.8132H118.6Z" fill="#263238"/>
<path d="M118.741 95.769C118.741 95.5757 118.798 95.3867 118.905 95.226C119.013 95.0653 119.165 94.94 119.344 94.866C119.523 94.792 119.719 94.7727 119.909 94.8104C120.098 94.8481 120.272 94.9412 120.409 95.0779C120.546 95.2146 120.639 95.3887 120.677 95.5783C120.714 95.7679 120.695 95.9645 120.621 96.1431C120.547 96.3217 120.422 96.4743 120.261 96.5817C120.1 96.6891 119.911 96.7464 119.718 96.7464C119.588 96.7509 119.459 96.7288 119.339 96.6812C119.218 96.6337 119.109 96.5619 119.017 96.4702C118.925 96.3785 118.853 96.269 118.806 96.1483C118.758 96.0277 118.736 95.8986 118.741 95.769ZM120.431 95.769C120.431 95.58 120.356 95.3987 120.222 95.265C120.088 95.1313 119.907 95.0562 119.718 95.0562C119.529 95.0562 119.348 95.1313 119.214 95.265C119.08 95.3987 119.005 95.58 119.005 95.769C119.005 95.9581 119.08 96.1394 119.214 96.273C119.348 96.4067 119.529 96.4818 119.718 96.4818C119.907 96.4818 120.088 96.4067 120.222 96.273C120.356 96.1394 120.431 95.9581 120.431 95.769Z" fill="#263238"/>
<path d="M122.191 94.797V95.04H122.126C122.035 95.0359 121.944 95.052 121.86 95.087C121.776 95.1221 121.7 95.1753 121.639 95.2428C121.578 95.3104 121.532 95.3906 121.505 95.4778C121.478 95.565 121.471 95.6571 121.484 95.7474V96.7248H121.225V94.8078H121.5V95.1804C121.565 95.0559 121.665 94.9532 121.788 94.8851C121.911 94.8169 122.051 94.7863 122.191 94.797Z" fill="#263238"/>
<path d="M124.389 94.0248V96.7248H124.141V96.3468C124.064 96.4725 123.954 96.5754 123.824 96.6447C123.694 96.714 123.548 96.7473 123.401 96.741C123.155 96.7227 122.925 96.612 122.757 96.4313C122.589 96.2505 122.496 96.013 122.496 95.7663C122.496 95.5197 122.589 95.2821 122.757 95.1013C122.925 94.9206 123.155 94.8099 123.401 94.7916C123.545 94.7861 123.687 94.8181 123.815 94.8844C123.943 94.9506 124.051 95.0489 124.13 95.1696V94.0194L124.389 94.0248ZM124.135 95.769C124.128 95.6299 124.08 95.496 123.997 95.3838C123.914 95.2717 123.801 95.1862 123.67 95.138C123.539 95.0898 123.397 95.081 123.262 95.1126C123.126 95.1442 123.002 95.2149 122.907 95.316C122.811 95.417 122.746 95.5439 122.722 95.6811C122.697 95.8182 122.713 95.9595 122.768 96.0876C122.823 96.2157 122.914 96.3248 123.031 96.4016C123.147 96.4784 123.283 96.5194 123.422 96.5196C123.52 96.5213 123.616 96.5028 123.706 96.4652C123.796 96.4276 123.877 96.3717 123.944 96.3011C124.011 96.2305 124.063 96.1468 124.095 96.0552C124.128 95.9636 124.142 95.8661 124.135 95.769Z" fill="#263238"/>
<path d="M128.228 116.1V118.66H127.98V116.338H127.375V116.1H128.228Z" fill="#263238"/>
<path d="M130.583 118.411V118.649H128.79V118.46L129.87 117.418C130.156 117.137 130.216 116.964 130.216 116.791C130.216 116.494 130.005 116.311 129.616 116.311C129.486 116.302 129.356 116.324 129.235 116.373C129.114 116.423 129.006 116.499 128.92 116.597L128.731 116.435C128.846 116.311 128.987 116.214 129.143 116.15C129.3 116.087 129.469 116.059 129.638 116.068C130.178 116.068 130.486 116.332 130.486 116.759C130.477 116.915 130.435 117.067 130.363 117.205C130.29 117.343 130.188 117.463 130.064 117.558L129.195 118.411H130.583Z" fill="#263238"/>
<path d="M132.602 117.914C132.602 118.341 132.289 118.67 131.674 118.67C131.337 118.681 131.009 118.563 130.756 118.341L130.88 118.13C131.096 118.329 131.38 118.435 131.674 118.427C132.1 118.427 132.332 118.233 132.332 117.914C132.332 117.596 132.116 117.407 131.641 117.407H131.458V117.212L132.165 116.327H130.858V116.1H132.478V116.289L131.76 117.18C132.327 117.218 132.602 117.504 132.602 117.914Z" fill="#263238"/>
<path d="M135.14 117.974H134.627V118.649H134.368V117.974H132.926V117.785L134.282 116.089H134.573L133.267 117.72H134.374V117.126H134.627V117.72H135.14V117.974Z" fill="#263238"/>
<path d="M138.073 117.893C138.073 118.33 137.77 118.67 137.144 118.67C136.807 118.68 136.479 118.563 136.226 118.341L136.355 118.13C136.46 118.23 136.583 118.307 136.717 118.358C136.851 118.409 136.995 118.433 137.138 118.427C137.576 118.427 137.803 118.217 137.803 117.887C137.803 117.558 137.597 117.347 136.949 117.347H136.409L136.544 116.062H137.943V116.3H136.771L136.685 117.11H137.014C137.781 117.137 138.073 117.445 138.073 117.893Z" fill="#263238"/>
<path d="M140.324 117.882C140.323 117.993 140.299 118.102 140.254 118.203C140.208 118.304 140.143 118.394 140.06 118.468C139.978 118.543 139.881 118.599 139.776 118.634C139.671 118.668 139.56 118.681 139.45 118.67C138.769 118.67 138.402 118.195 138.402 117.391C138.402 116.586 138.877 116.068 139.568 116.068C139.781 116.06 139.991 116.108 140.179 116.208L140.071 116.419C139.92 116.332 139.747 116.291 139.574 116.3C139.034 116.3 138.667 116.651 138.667 117.347C138.667 117.407 138.667 117.477 138.667 117.553C138.741 117.412 138.855 117.296 138.994 117.218C139.132 117.141 139.291 117.105 139.45 117.115C139.559 117.101 139.669 117.111 139.775 117.143C139.88 117.175 139.977 117.229 140.059 117.302C140.142 117.374 140.208 117.464 140.254 117.564C140.3 117.664 140.324 117.772 140.324 117.882ZM140.065 117.882C140.065 117.542 139.817 117.342 139.423 117.342C139.344 117.332 139.263 117.339 139.187 117.361C139.11 117.383 139.039 117.421 138.978 117.471C138.916 117.521 138.865 117.584 138.829 117.655C138.792 117.725 138.77 117.803 138.764 117.882C138.764 118.163 138.996 118.422 139.439 118.422C139.516 118.434 139.594 118.43 139.669 118.409C139.745 118.389 139.814 118.352 139.874 118.301C139.933 118.251 139.981 118.189 140.014 118.118C140.047 118.048 140.065 117.971 140.065 117.893V117.882Z" fill="#263238"/>
<path d="M142.398 116.1V116.289L141.318 118.66H141.032L142.085 116.338H140.773V116.813H140.513V116.1H142.398Z" fill="#263238"/>
<path d="M144.639 117.936C144.639 118.39 144.256 118.67 143.645 118.67C143.035 118.67 142.663 118.39 142.663 117.936C142.661 117.791 142.709 117.649 142.798 117.534C142.887 117.42 143.013 117.338 143.154 117.304C143.036 117.273 142.933 117.202 142.86 117.104C142.787 117.006 142.75 116.886 142.754 116.764C142.754 116.348 143.105 116.089 143.645 116.089C144.185 116.089 144.547 116.348 144.547 116.764C144.545 116.886 144.504 117.004 144.431 117.102C144.357 117.199 144.254 117.27 144.137 117.304C144.28 117.337 144.407 117.418 144.498 117.532C144.59 117.647 144.639 117.789 144.639 117.936ZM144.369 117.936C144.369 117.623 144.099 117.423 143.645 117.423C143.192 117.423 142.927 117.623 142.927 117.936C142.927 118.249 143.192 118.476 143.645 118.476C144.099 118.476 144.369 118.26 144.369 117.931V117.936ZM143.64 117.212C144.04 117.212 144.277 117.034 144.277 116.753C144.277 116.473 144.023 116.294 143.64 116.294C143.257 116.294 143.008 116.467 143.008 116.753C143.008 117.04 143.246 117.212 143.64 117.212Z" fill="#263238"/>
<path d="M147.803 117.347C147.803 118.217 147.328 118.67 146.632 118.67C146.421 118.678 146.213 118.629 146.027 118.53L146.135 118.319C146.286 118.406 146.458 118.447 146.632 118.438C147.172 118.438 147.533 118.082 147.533 117.391C147.538 117.322 147.538 117.254 147.533 117.185C147.461 117.326 147.349 117.443 147.21 117.521C147.072 117.599 146.914 117.634 146.756 117.623C146.648 117.635 146.538 117.624 146.434 117.591C146.33 117.558 146.235 117.504 146.153 117.432C146.072 117.359 146.006 117.271 145.961 117.172C145.916 117.072 145.893 116.965 145.892 116.856C145.893 116.745 145.917 116.636 145.962 116.535C146.008 116.434 146.074 116.344 146.156 116.27C146.238 116.195 146.335 116.139 146.44 116.104C146.545 116.07 146.656 116.057 146.767 116.068C147.42 116.068 147.803 116.543 147.803 117.347ZM147.442 116.84C147.442 116.559 147.209 116.3 146.767 116.3C146.689 116.287 146.609 116.292 146.533 116.313C146.458 116.335 146.387 116.372 146.328 116.424C146.268 116.475 146.22 116.539 146.188 116.611C146.155 116.683 146.139 116.761 146.14 116.84C146.14 117.18 146.389 117.38 146.783 117.38C146.939 117.392 147.093 117.342 147.212 117.241C147.332 117.14 147.406 116.996 147.42 116.84H147.442Z" fill="#263238"/>
<path d="M148.883 116.1V118.66H148.619V116.338H148.014V116.1H148.883Z" fill="#263238"/>
<path d="M149.488 117.369C149.488 116.554 149.92 116.068 150.509 116.068C151.097 116.068 151.529 116.554 151.529 117.369C151.529 118.184 151.103 118.67 150.509 118.67C149.915 118.67 149.488 118.184 149.488 117.369ZM151.259 117.369C151.259 116.689 150.957 116.289 150.509 116.289C150.061 116.289 149.758 116.667 149.758 117.369C149.758 118.071 150.066 118.449 150.509 118.449C150.952 118.449 151.259 118.049 151.259 117.369Z" fill="#263238"/>
<path d="M152.609 116.1V118.66H152.345V116.338H151.74V116.1H152.609Z" fill="#263238"/>
<path d="M154.883 116.1V118.66H154.618V116.338H154.013V116.1H154.883Z" fill="#263238"/>
<path d="M156.195 116.1V118.66H155.936V116.338H155.331V116.1H156.195Z" fill="#263238"/>
<path d="M158.549 118.411V118.649H156.757V118.46L157.837 117.418C158.123 117.137 158.182 116.964 158.182 116.791C158.182 116.494 157.972 116.311 157.583 116.311C157.453 116.302 157.322 116.324 157.201 116.373C157.081 116.423 156.973 116.499 156.886 116.597L156.697 116.435C156.813 116.312 156.954 116.215 157.11 116.151C157.267 116.088 157.436 116.059 157.604 116.068C158.144 116.068 158.452 116.332 158.452 116.759C158.444 116.915 158.402 117.067 158.329 117.205C158.256 117.343 158.155 117.463 158.031 117.558L157.14 118.411H158.549Z" fill="#263238"/>
<path d="M159.586 116.1V118.66H159.3V116.338H158.701V116.1H159.586Z" fill="#263238"/>
<path d="M116.527 115.506V115.117C116.527 114.937 116.455 114.764 116.327 114.636C116.2 114.508 116.027 114.437 115.846 114.437H108.95C108.77 114.437 108.597 114.508 108.469 114.636C108.342 114.764 108.27 114.937 108.27 115.117V115.506H116.527Z" fill="#263238"/>
<path d="M108.27 116.041V118.903C108.27 119.083 108.342 119.256 108.469 119.384C108.597 119.511 108.77 119.583 108.95 119.583H115.846C116.027 119.583 116.2 119.511 116.327 119.384C116.455 119.256 116.527 119.083 116.527 118.903V116.041H108.27Z" fill="#263238"/>
<path d="M108.373 131.112C108.373 130.297 108.799 129.816 109.393 129.816C109.987 129.816 110.414 130.297 110.414 131.112C110.414 131.927 109.982 132.413 109.393 132.413C108.805 132.413 108.373 131.927 108.373 131.112ZM110.144 131.112C110.144 130.432 109.836 130.032 109.393 130.032C108.95 130.032 108.643 130.41 108.643 131.112C108.643 131.814 108.945 132.192 109.393 132.192C109.841 132.192 110.16 131.798 110.16 131.112H110.144Z" fill="#263238"/>
<path d="M112.752 131.679C112.752 132.133 112.369 132.413 111.758 132.413C111.148 132.413 110.776 132.133 110.776 131.679C110.773 131.534 110.821 131.393 110.91 131.279C111 131.165 111.126 131.085 111.267 131.053C111.152 131.015 111.052 130.943 110.981 130.847C110.909 130.75 110.869 130.633 110.867 130.513C110.867 130.097 111.218 129.838 111.758 129.838C112.298 129.838 112.66 130.097 112.66 130.513C112.657 130.633 112.616 130.75 112.544 130.847C112.471 130.944 112.37 131.016 112.255 131.053C112.397 131.085 112.524 131.164 112.614 131.278C112.704 131.392 112.753 131.534 112.752 131.679ZM112.482 131.679C112.482 131.366 112.212 131.171 111.758 131.171C111.305 131.171 111.04 131.366 111.04 131.679C111.04 131.992 111.31 132.219 111.758 132.219C112.207 132.219 112.482 131.992 112.482 131.674V131.679ZM111.78 130.955C112.18 130.955 112.417 130.777 112.417 130.502C112.417 130.226 112.163 130.037 111.78 130.037C111.397 130.037 111.148 130.21 111.148 130.496C111.148 130.783 111.364 130.955 111.78 130.955Z" fill="#263238"/>
<path d="M114.043 129.319H114.28L113.071 132.754H112.86L114.043 129.319Z" fill="#263238"/>
<path d="M116.1 132.154V132.392H114.307V132.203L115.387 131.166C115.673 130.88 115.727 130.707 115.727 130.534C115.727 130.237 115.522 130.054 115.133 130.054C115.002 130.045 114.871 130.067 114.75 130.116C114.628 130.166 114.519 130.242 114.431 130.34L114.248 130.178C114.363 130.054 114.504 129.958 114.661 129.895C114.818 129.833 114.986 129.806 115.155 129.816C115.695 129.816 115.997 130.075 115.997 130.502C115.992 130.658 115.952 130.81 115.88 130.948C115.808 131.087 115.706 131.207 115.582 131.301L114.712 132.154H116.1Z" fill="#263238"/>
<path d="M118.147 131.636C118.147 132.073 117.844 132.413 117.218 132.413C116.881 132.423 116.553 132.306 116.3 132.084L116.429 131.873C116.534 131.973 116.656 132.05 116.791 132.101C116.925 132.152 117.069 132.176 117.212 132.17C117.65 132.17 117.877 131.96 117.877 131.63C117.877 131.301 117.677 131.09 117.023 131.09H116.483L116.613 129.811H118.012V130.043H116.84L116.753 130.858H117.083C117.855 130.885 118.147 131.188 118.147 131.636Z" fill="#263238"/>
<path d="M109.566 128.191V128.336H108.443V126.749H109.523V126.9H108.605V127.44H109.426V127.586H108.605V128.174L109.566 128.191Z" fill="#263238"/>
<path d="M110.932 128.336L110.425 127.634L109.885 128.336H109.69L110.295 127.521L109.755 126.749H109.944L110.425 127.397L110.9 126.749H111.078L110.538 127.516L111.143 128.336H110.932Z" fill="#263238"/>
<path d="M112.617 127.294C112.617 127.629 112.369 127.834 111.969 127.834H111.542V128.336H111.375V126.749H111.969C112.369 126.749 112.617 126.954 112.617 127.294ZM112.45 127.294C112.45 127.04 112.282 126.895 111.964 126.895H111.542V127.688H111.964C112.282 127.688 112.45 127.543 112.45 127.294Z" fill="#263238"/>
<path d="M113.6 126.749H114.242C114.453 126.749 114.655 126.832 114.804 126.981C114.953 127.13 115.036 127.332 115.036 127.543C115.036 127.753 114.953 127.955 114.804 128.104C114.655 128.253 114.453 128.336 114.242 128.336H113.6V126.749ZM114.232 128.191C114.403 128.191 114.568 128.122 114.69 128.001C114.811 127.879 114.88 127.714 114.88 127.543C114.88 127.371 114.811 127.206 114.69 127.084C114.568 126.963 114.403 126.895 114.232 126.895H113.767V128.191H114.232Z" fill="#263238"/>
<path d="M116.338 127.597V128.336H116.181V128.147C116.137 128.215 116.076 128.269 116.004 128.304C115.931 128.339 115.851 128.354 115.771 128.347C115.506 128.347 115.339 128.207 115.339 128.002C115.339 127.796 115.457 127.661 115.798 127.661H116.176V127.591C116.18 127.547 116.175 127.502 116.159 127.46C116.144 127.418 116.119 127.38 116.087 127.35C116.054 127.319 116.015 127.296 115.973 127.282C115.93 127.269 115.885 127.266 115.841 127.273C115.695 127.27 115.553 127.32 115.441 127.413L115.371 127.294C115.509 127.185 115.681 127.128 115.857 127.132C115.921 127.123 115.986 127.128 116.048 127.148C116.109 127.167 116.165 127.201 116.212 127.246C116.258 127.291 116.294 127.346 116.316 127.407C116.337 127.467 116.345 127.532 116.338 127.597ZM116.176 127.975V127.78H115.803C115.571 127.78 115.495 127.872 115.495 127.996C115.495 128.12 115.609 128.218 115.798 128.218C115.878 128.223 115.957 128.203 116.025 128.161C116.093 128.118 116.146 128.055 116.176 127.98V127.975Z" fill="#263238"/>
<path d="M117.401 128.261C117.333 128.32 117.244 128.351 117.153 128.347C117.106 128.352 117.059 128.347 117.014 128.331C116.97 128.316 116.929 128.29 116.896 128.257C116.862 128.224 116.836 128.184 116.82 128.14C116.804 128.096 116.798 128.049 116.802 128.002V127.278H116.591V127.143H116.802V126.9H116.964V127.159H117.326V127.294H116.964V127.98C116.96 128.008 116.962 128.037 116.971 128.065C116.979 128.092 116.994 128.117 117.014 128.138C117.034 128.159 117.058 128.175 117.085 128.185C117.112 128.195 117.141 128.199 117.169 128.196C117.234 128.197 117.297 128.176 117.347 128.137L117.401 128.261Z" fill="#263238"/>
<path d="M118.692 127.791H117.72C117.728 127.908 117.782 128.016 117.87 128.093C117.958 128.17 118.073 128.209 118.19 128.201C118.259 128.204 118.328 128.192 118.391 128.165C118.455 128.137 118.511 128.097 118.557 128.045L118.649 128.153C118.59 128.217 118.518 128.267 118.438 128.301C118.358 128.334 118.271 128.35 118.184 128.347C118.103 128.352 118.021 128.339 117.944 128.31C117.867 128.281 117.798 128.237 117.739 128.179C117.681 128.122 117.635 128.053 117.605 127.977C117.574 127.901 117.56 127.819 117.563 127.737C117.559 127.659 117.571 127.58 117.598 127.507C117.625 127.433 117.667 127.366 117.721 127.309C117.775 127.252 117.84 127.207 117.913 127.177C117.985 127.147 118.063 127.131 118.141 127.132C118.221 127.126 118.301 127.138 118.376 127.166C118.451 127.195 118.518 127.24 118.574 127.298C118.629 127.355 118.671 127.425 118.696 127.501C118.721 127.577 118.729 127.658 118.719 127.737L118.692 127.791ZM117.693 127.667H118.541C118.529 127.563 118.479 127.466 118.401 127.397C118.323 127.327 118.222 127.288 118.117 127.288C118.012 127.288 117.911 127.327 117.833 127.397C117.755 127.466 117.705 127.563 117.693 127.667Z" fill="#263238"/>
<path d="M138.532 129.838V132.392H138.272V130.07H137.668V129.838H138.532Z" fill="#263238"/>
<path d="M140.886 132.154V132.392H139.093V132.203L140.173 131.166C140.459 130.88 140.519 130.707 140.519 130.534C140.519 130.237 140.308 130.054 139.919 130.054C139.789 130.045 139.659 130.067 139.538 130.116C139.417 130.166 139.31 130.242 139.223 130.34L139.034 130.178C139.149 130.055 139.291 129.959 139.447 129.896C139.604 129.834 139.773 129.806 139.941 129.816C140.481 129.816 140.789 130.075 140.789 130.502C140.78 130.658 140.738 130.81 140.666 130.948C140.593 131.086 140.491 131.206 140.368 131.301L139.498 132.154H140.886Z" fill="#263238"/>
<path d="M142.906 131.657C142.906 132.084 142.592 132.413 141.977 132.413C141.64 132.424 141.312 132.306 141.059 132.084L141.188 131.873C141.293 131.973 141.417 132.051 141.552 132.102C141.688 132.153 141.832 132.176 141.977 132.17C142.403 132.17 142.636 131.976 142.636 131.657C142.636 131.339 142.42 131.15 141.944 131.15H141.761V130.955L142.468 130.07H141.161V129.838H142.781V130.021L142.058 130.928C142.63 130.961 142.906 131.247 142.906 131.657Z" fill="#263238"/>
<path d="M137.754 127.543C137.752 127.434 137.773 127.326 137.815 127.226C137.856 127.125 137.918 127.034 137.995 126.959C138.073 126.883 138.166 126.824 138.267 126.785C138.369 126.746 138.477 126.728 138.586 126.733C138.693 126.729 138.799 126.748 138.899 126.788C138.998 126.828 139.088 126.888 139.163 126.965L139.061 127.073C138.999 127.011 138.926 126.963 138.845 126.93C138.765 126.898 138.678 126.882 138.591 126.884C138.5 126.876 138.408 126.886 138.321 126.916C138.234 126.945 138.155 126.992 138.087 127.053C138.02 127.115 137.966 127.19 137.929 127.274C137.892 127.358 137.873 127.448 137.873 127.54C137.873 127.631 137.892 127.722 137.929 127.806C137.966 127.889 138.02 127.965 138.087 128.026C138.155 128.088 138.234 128.135 138.321 128.164C138.408 128.193 138.5 128.204 138.591 128.196C138.678 128.199 138.765 128.184 138.846 128.152C138.927 128.119 139 128.07 139.061 128.007L139.163 128.115C139.088 128.193 138.998 128.254 138.897 128.294C138.796 128.335 138.688 128.353 138.58 128.347C138.472 128.352 138.365 128.334 138.264 128.295C138.163 128.257 138.071 128.198 137.994 128.123C137.917 128.047 137.855 127.957 137.814 127.857C137.773 127.758 137.752 127.651 137.754 127.543Z" fill="#263238"/>
<path d="M141.685 126.749L141.145 128.336H140.967L140.503 126.981L140.038 128.336H139.86L139.32 126.749H139.493L139.952 128.115L140.427 126.749H140.584L141.048 128.12L141.512 126.749H141.685Z" fill="#263238"/>
<path d="M124.367 146.113H122.942L122.634 146.799H122.353L123.52 144.245H123.79L124.956 146.799H124.67L124.367 146.113ZM124.265 145.897L123.66 144.526L123.044 145.897H124.265Z" fill="#263238"/>
<path d="M125.113 145.838C125.108 145.707 125.13 145.577 125.179 145.456C125.227 145.334 125.3 145.224 125.392 145.133C125.485 145.041 125.596 144.969 125.718 144.922C125.84 144.875 125.97 144.854 126.101 144.86C126.249 144.852 126.396 144.883 126.528 144.95C126.66 145.017 126.772 145.119 126.851 145.244L126.662 145.373C126.602 145.286 126.521 145.214 126.427 145.165C126.333 145.115 126.229 145.088 126.122 145.087C125.923 145.087 125.732 145.166 125.592 145.307C125.451 145.448 125.372 145.639 125.372 145.838C125.372 146.037 125.451 146.228 125.592 146.369C125.732 146.509 125.923 146.588 126.122 146.588C126.228 146.588 126.332 146.562 126.426 146.513C126.52 146.464 126.601 146.394 126.662 146.308L126.851 146.437C126.77 146.56 126.658 146.66 126.527 146.726C126.395 146.793 126.248 146.823 126.101 146.815C125.97 146.821 125.84 146.8 125.718 146.753C125.596 146.707 125.485 146.635 125.392 146.543C125.3 146.451 125.227 146.341 125.179 146.22C125.13 146.098 125.108 145.968 125.113 145.838Z" fill="#263238"/>
<path d="M128.39 146.68C128.277 146.773 128.132 146.821 127.985 146.815C127.913 146.82 127.841 146.809 127.773 146.784C127.706 146.758 127.644 146.719 127.593 146.668C127.542 146.616 127.502 146.555 127.477 146.487C127.451 146.42 127.441 146.347 127.445 146.275V145.098H127.105V144.877H127.44V144.455H127.699V144.877H128.288V145.098H127.699V146.243C127.692 146.289 127.696 146.336 127.71 146.381C127.725 146.425 127.749 146.466 127.781 146.5C127.813 146.534 127.853 146.56 127.897 146.576C127.941 146.592 127.987 146.598 128.034 146.594C128.138 146.596 128.239 146.561 128.32 146.497L128.39 146.68Z" fill="#263238"/>
<path d="M128.806 144.272C128.806 144.222 128.826 144.174 128.862 144.138C128.897 144.103 128.945 144.083 128.995 144.083C129.045 144.083 129.093 144.103 129.129 144.138C129.164 144.174 129.184 144.222 129.184 144.272C129.184 144.322 129.164 144.37 129.129 144.405C129.093 144.441 129.045 144.461 128.995 144.461C128.945 144.461 128.897 144.441 128.862 144.405C128.826 144.37 128.806 144.322 128.806 144.272ZM128.866 144.877H129.125V146.799H128.866V144.877Z" fill="#263238"/>
<path d="M129.649 145.838C129.649 145.645 129.706 145.456 129.813 145.295C129.92 145.135 130.072 145.009 130.251 144.935C130.429 144.861 130.625 144.842 130.815 144.879C131.004 144.916 131.178 145.009 131.315 145.145C131.452 145.281 131.546 145.455 131.584 145.644C131.622 145.833 131.604 146.029 131.531 146.208C131.457 146.387 131.333 146.54 131.173 146.648C131.013 146.756 130.824 146.814 130.631 146.815C130.502 146.82 130.372 146.798 130.251 146.75C130.13 146.703 130.021 146.631 129.928 146.539C129.836 146.448 129.764 146.338 129.716 146.218C129.668 146.097 129.645 145.968 129.649 145.838ZM131.339 145.838C131.331 145.698 131.283 145.564 131.2 145.452C131.117 145.34 131.003 145.254 130.872 145.206C130.741 145.158 130.599 145.15 130.463 145.182C130.327 145.214 130.204 145.285 130.108 145.387C130.013 145.488 129.949 145.616 129.925 145.753C129.901 145.891 129.918 146.032 129.973 146.16C130.029 146.288 130.121 146.397 130.238 146.473C130.355 146.549 130.492 146.589 130.631 146.588C130.728 146.589 130.824 146.57 130.913 146.532C131.003 146.494 131.083 146.438 131.149 146.368C131.216 146.297 131.267 146.214 131.3 146.123C131.332 146.031 131.345 145.934 131.339 145.838Z" fill="#263238"/>
<path d="M133.92 145.687V146.799H133.661V145.719C133.672 145.639 133.664 145.558 133.64 145.481C133.615 145.405 133.573 145.334 133.518 145.276C133.462 145.217 133.395 145.172 133.319 145.143C133.244 145.114 133.163 145.102 133.083 145.109C132.991 145.102 132.9 145.115 132.814 145.148C132.728 145.181 132.65 145.232 132.586 145.298C132.522 145.364 132.474 145.443 132.444 145.53C132.414 145.616 132.404 145.709 132.413 145.8V146.81H132.154V144.887H132.403V145.26C132.481 145.139 132.589 145.041 132.717 144.976C132.845 144.91 132.988 144.88 133.132 144.887C133.238 144.88 133.345 144.896 133.444 144.933C133.544 144.971 133.635 145.03 133.709 145.106C133.784 145.182 133.842 145.273 133.878 145.373C133.915 145.473 133.929 145.58 133.92 145.687Z" fill="#263238"/>
<path d="M135.886 144.477V145.481H137.203V145.714H135.886V146.794H135.616V144.239H137.365V144.472L135.886 144.477Z" fill="#263238"/>
<path d="M137.776 144.272C137.776 144.222 137.796 144.174 137.831 144.138C137.866 144.103 137.915 144.083 137.965 144.083C138.015 144.083 138.063 144.103 138.098 144.138C138.134 144.174 138.154 144.222 138.154 144.272C138.154 144.322 138.134 144.37 138.098 144.405C138.063 144.441 138.015 144.461 137.965 144.461C137.915 144.461 137.866 144.441 137.831 144.405C137.796 144.37 137.776 144.322 137.776 144.272ZM137.83 144.877H138.089V146.799H137.83V144.877Z" fill="#263238"/>
<path d="M140.589 144.877V146.567C140.609 146.697 140.599 146.83 140.558 146.955C140.517 147.08 140.447 147.194 140.354 147.287C140.261 147.381 140.147 147.45 140.022 147.491C139.896 147.532 139.763 147.543 139.633 147.523C139.309 147.537 138.991 147.433 138.737 147.231L138.866 147.031C139.079 147.207 139.347 147.301 139.622 147.296C140.108 147.296 140.33 147.069 140.33 146.599V146.34C140.248 146.461 140.137 146.559 140.006 146.624C139.876 146.689 139.73 146.72 139.585 146.713C139.456 146.722 139.327 146.706 139.206 146.663C139.084 146.621 138.973 146.554 138.879 146.466C138.784 146.379 138.709 146.273 138.658 146.155C138.606 146.037 138.579 145.91 138.579 145.781C138.579 145.652 138.606 145.525 138.658 145.407C138.709 145.289 138.784 145.183 138.879 145.096C138.973 145.008 139.084 144.941 139.206 144.899C139.327 144.857 139.456 144.84 139.585 144.85C139.733 144.844 139.88 144.876 140.013 144.943C140.145 145.01 140.258 145.11 140.341 145.233V144.866L140.589 144.877ZM140.341 145.789C140.345 145.644 140.306 145.501 140.228 145.378C140.151 145.256 140.039 145.159 139.906 145.1C139.773 145.042 139.626 145.024 139.483 145.05C139.34 145.076 139.208 145.143 139.104 145.244C139 145.345 138.929 145.475 138.899 145.617C138.869 145.759 138.882 145.907 138.936 146.041C138.991 146.176 139.084 146.291 139.204 146.372C139.325 146.453 139.467 146.497 139.612 146.497C139.706 146.503 139.801 146.489 139.89 146.456C139.979 146.424 140.06 146.373 140.129 146.308C140.197 146.243 140.251 146.164 140.288 146.076C140.324 145.989 140.342 145.895 140.341 145.8V145.789Z" fill="#263238"/>
<path d="M143.046 144.877V146.799H142.798V146.448C142.726 146.566 142.624 146.662 142.502 146.726C142.381 146.791 142.244 146.822 142.106 146.815C141.996 146.826 141.885 146.811 141.781 146.773C141.677 146.735 141.582 146.674 141.505 146.595C141.427 146.516 141.368 146.42 141.332 146.316C141.296 146.211 141.284 146.099 141.296 145.989V144.877H141.556V145.957C141.544 146.037 141.551 146.119 141.575 146.196C141.599 146.273 141.641 146.344 141.696 146.403C141.752 146.463 141.82 146.509 141.896 146.538C141.971 146.567 142.053 146.579 142.133 146.572C142.224 146.577 142.315 146.561 142.399 146.527C142.483 146.493 142.559 146.441 142.621 146.375C142.683 146.309 142.73 146.23 142.759 146.144C142.788 146.057 142.797 145.966 142.787 145.876V144.866L143.046 144.877Z" fill="#263238"/>
<path d="M144.72 144.86V145.114H144.655C144.563 145.11 144.472 145.126 144.387 145.162C144.302 145.197 144.226 145.251 144.164 145.319C144.102 145.387 144.056 145.467 144.029 145.555C144.002 145.643 143.994 145.736 144.007 145.827V146.804H143.748V144.882H143.996V145.26C144.064 145.129 144.168 145.021 144.297 144.95C144.426 144.879 144.573 144.847 144.72 144.86Z" fill="#263238"/>
<path d="M146.88 145.919H145.26C145.265 146.012 145.289 146.104 145.33 146.189C145.371 146.273 145.429 146.348 145.499 146.411C145.569 146.473 145.651 146.521 145.74 146.551C145.828 146.582 145.922 146.594 146.016 146.588C146.127 146.591 146.237 146.57 146.338 146.526C146.44 146.483 146.531 146.417 146.605 146.335L146.75 146.502C146.613 146.647 146.435 146.747 146.24 146.792C146.045 146.836 145.842 146.822 145.655 146.751C145.468 146.68 145.307 146.556 145.19 146.393C145.074 146.231 145.008 146.038 145.001 145.838C144.994 145.711 145.014 145.584 145.058 145.465C145.102 145.346 145.171 145.237 145.259 145.145C145.347 145.054 145.453 144.981 145.57 144.932C145.687 144.883 145.813 144.859 145.94 144.86C146.067 144.858 146.193 144.882 146.31 144.931C146.427 144.979 146.533 145.052 146.62 145.144C146.708 145.236 146.775 145.345 146.818 145.465C146.861 145.584 146.878 145.711 146.869 145.838C146.869 145.838 146.88 145.886 146.88 145.919ZM145.26 145.724H146.621C146.621 145.544 146.549 145.371 146.422 145.243C146.294 145.116 146.121 145.044 145.94 145.044C145.76 145.044 145.587 145.116 145.459 145.243C145.332 145.371 145.26 145.544 145.26 145.724Z" fill="#263238"/>
<path d="M125.512 157.043V158.166H124.513V157.086C123.621 157.058 122.754 156.779 122.013 156.281L122.553 155.061C123.13 155.464 123.802 155.71 124.502 155.774V154.1C123.385 153.824 122.143 153.457 122.143 152.021C122.143 150.941 122.915 150.044 124.502 149.861V148.748H125.501V149.828C126.219 149.869 126.917 150.08 127.537 150.444L127.035 151.675C126.564 151.396 126.043 151.212 125.501 151.135V152.842C126.614 153.101 127.84 153.473 127.84 154.888C127.85 155.952 127.089 156.854 125.512 157.043ZM124.513 152.615V151.2C123.973 151.319 123.768 151.61 123.768 151.94C123.768 152.269 124.07 152.474 124.513 152.615ZM126.236 155.029C126.236 154.678 125.944 154.489 125.512 154.337V155.72C126.014 155.612 126.236 155.353 126.236 155.029Z" fill="#263238"/>
<path d="M133.763 155.639V156.967H128.461V155.914L131.161 153.355C131.787 152.761 131.895 152.404 131.895 152.059C131.895 151.519 131.512 151.189 130.772 151.189C130.491 151.178 130.211 151.237 129.958 151.359C129.705 151.481 129.485 151.664 129.319 151.891L128.137 151.13C128.456 150.698 128.878 150.353 129.365 150.124C129.851 149.896 130.387 149.793 130.923 149.823C132.489 149.823 133.531 150.628 133.531 151.902C133.531 152.582 133.337 153.203 132.354 154.116L130.734 155.639H133.763Z" fill="#263238"/>
<path d="M134.417 153.457C134.417 151.141 135.702 149.823 137.425 149.823C139.147 149.823 140.432 151.141 140.432 153.457C140.432 155.774 139.158 157.086 137.425 157.086C135.691 157.086 134.417 155.774 134.417 153.457ZM138.802 153.457C138.802 151.837 138.262 151.2 137.425 151.2C136.588 151.2 136.064 151.859 136.064 153.457C136.064 155.056 136.604 155.709 137.425 155.709C138.245 155.709 138.78 155.05 138.78 153.457H138.802Z" fill="#263238"/>
<path d="M141.226 153.457C141.226 151.141 142.511 149.823 144.234 149.823C145.957 149.823 147.242 151.141 147.242 153.457C147.242 155.774 145.967 157.086 144.234 157.086C142.501 157.086 141.226 155.774 141.226 153.457ZM145.606 153.457C145.606 151.837 145.066 151.2 144.234 151.2C143.402 151.2 142.868 151.859 142.868 153.457C142.868 155.056 143.408 155.709 144.234 155.709C145.06 155.709 145.606 155.05 145.606 153.457Z" fill="#263238"/>
<path d="M145.881 174.841H123.493C122.104 174.84 120.772 174.287 119.79 173.305C118.808 172.323 118.256 170.992 118.255 169.603C118.255 168.214 118.806 166.881 119.788 165.897C120.771 164.914 122.103 164.361 123.493 164.36H145.881C146.569 164.36 147.251 164.495 147.887 164.759C148.523 165.023 149.1 165.409 149.587 165.896C150.073 166.383 150.459 166.961 150.722 167.597C150.985 168.233 151.12 168.915 151.119 169.603C151.119 170.992 150.567 172.325 149.585 173.307C148.603 174.289 147.27 174.841 145.881 174.841Z" fill="#263238"/>
<path d="M127.505 169.02C127.505 169.679 127.03 170.073 126.247 170.073H125.415V171.045H125.091V167.967H126.247C127.03 167.989 127.505 168.383 127.505 169.02ZM127.175 169.02C127.175 168.529 126.851 168.248 126.236 168.248H125.415V169.787H126.236C126.851 169.808 127.175 169.528 127.175 169.02Z" fill="white"/>
<path d="M129.865 169.63V171.067H129.568V170.705C129.481 170.834 129.361 170.938 129.22 171.005C129.08 171.073 128.924 171.101 128.768 171.088C128.228 171.088 127.926 170.818 127.926 170.413C127.926 170.008 128.153 169.76 128.817 169.76H129.551V169.619C129.551 169.225 129.33 169.009 128.898 169.009C128.617 169.005 128.343 169.101 128.126 169.279L127.985 169.047C128.254 168.835 128.589 168.725 128.93 168.734C129.054 168.716 129.18 168.726 129.299 168.765C129.418 168.803 129.526 168.867 129.616 168.954C129.707 169.04 129.776 169.146 129.819 169.263C129.862 169.381 129.877 169.506 129.865 169.63ZM129.551 170.37V169.992H128.828C128.38 169.992 128.234 170.17 128.234 170.408C128.234 170.645 128.45 170.845 128.817 170.845C128.974 170.855 129.13 170.814 129.263 170.729C129.395 170.643 129.496 170.517 129.551 170.37Z" fill="white"/>
<path d="M132.613 168.75L131.458 171.342C131.263 171.796 131.02 171.941 130.691 171.941C130.486 171.941 130.288 171.862 130.14 171.72L130.286 171.488C130.34 171.545 130.406 171.59 130.478 171.62C130.55 171.651 130.628 171.667 130.707 171.666C130.918 171.666 131.058 171.569 131.188 171.277L131.29 171.05L130.253 168.739H130.583L131.452 170.71L132.3 168.75H132.613Z" fill="white"/>
<path d="M135.254 171.088V171.596H135.032V171.094C134.645 171.091 134.271 170.949 133.979 170.694L134.109 170.44C134.364 170.668 134.691 170.799 135.032 170.813V169.657C134.546 169.538 134.055 169.387 134.055 168.804C134.055 168.383 134.357 168.016 135.032 167.967V167.459H135.254V167.94C135.57 167.945 135.879 168.039 136.145 168.21L136.037 168.469C135.801 168.322 135.532 168.234 135.254 168.215V169.382C135.751 169.501 136.274 169.641 136.274 170.23C136.274 170.678 135.95 171.05 135.254 171.088ZM135.032 169.349V168.269C134.579 168.307 134.374 168.539 134.374 168.809C134.374 169.079 134.671 169.252 135.032 169.349ZM135.95 170.273C135.95 169.922 135.632 169.803 135.254 169.733V170.813C135.734 170.775 135.95 170.554 135.95 170.273Z" fill="white"/>
<path d="M138.812 170.786V171.067H136.652V170.845L137.932 169.587C138.278 169.247 138.343 169.047 138.343 168.826C138.343 168.469 138.094 168.253 137.624 168.253C137.468 168.245 137.311 168.272 137.166 168.33C137.02 168.389 136.889 168.479 136.782 168.593L136.555 168.399C136.693 168.253 136.861 168.138 137.048 168.062C137.234 167.987 137.434 167.953 137.635 167.962C138.256 167.962 138.656 168.28 138.656 168.793C138.648 168.981 138.598 169.165 138.511 169.331C138.423 169.497 138.299 169.642 138.148 169.754L137.101 170.786H138.812Z" fill="white"/>
<path d="M139.19 169.528C139.19 168.545 139.703 167.962 140.416 167.962C141.129 167.962 141.647 168.545 141.647 169.528C141.647 170.51 141.107 171.094 140.416 171.094C139.725 171.094 139.19 170.51 139.19 169.528ZM141.323 169.528C141.323 168.707 140.956 168.253 140.416 168.253C139.876 168.253 139.509 168.707 139.509 169.528C139.509 170.348 139.882 170.802 140.416 170.802C140.951 170.802 141.323 170.348 141.323 169.528Z" fill="white"/>
<path d="M142.101 169.528C142.101 168.545 142.641 167.962 143.332 167.962C144.023 167.962 144.563 168.545 144.563 169.528C144.563 170.51 144.023 171.094 143.332 171.094C142.641 171.094 142.101 170.51 142.101 169.528ZM144.261 169.528C144.261 168.707 143.894 168.253 143.359 168.253C142.825 168.253 142.452 168.707 142.452 169.528C142.452 170.348 142.819 170.802 143.359 170.802C143.899 170.802 144.234 170.348 144.234 169.528H144.261Z" fill="white"/>
<path d="M100.813 158.35C101.623 170.797 95.8554 184.658 95.8554 184.658L64.7028 175.889L59.2704 174.355C64.6704 166.855 67.2408 152.08 65.8314 140.125C65.7234 139.223 65.6586 138.375 65.61 137.565C65.07 127.705 69.1686 124.821 72.63 120.463C76.41 115.744 84.8232 97.9236 84.8232 93.7062C84.8232 89.4888 95.3802 79.164 93.0312 67.446C93.0312 67.446 96.2226 65.4642 99.4302 67.0896C100.888 67.824 102.341 69.2982 103.513 72.0306C106.261 78.4512 102.4 96.6006 99.117 101.05L92.7936 127.229C92.7936 127.229 94.9266 130.907 97.0218 137.581C99.1045 144.329 100.377 151.301 100.813 158.35Z" fill="white"/>
<path opacity="0.4" d="M65.61 137.565C67.3758 142.398 69.2496 145.665 69.0876 152.437C68.9256 159.208 65.3076 169.63 66.339 175.046C65.7498 175.22 65.1997 175.506 64.719 175.889L59.2866 174.355C64.6866 166.855 67.257 152.08 65.8476 140.125C65.7234 139.223 65.6586 138.375 65.61 137.565Z" fill="#FFDA44"/>
<path opacity="0.4" d="M99.117 101.05L92.7936 127.229C92.7936 127.229 94.9266 130.907 97.0218 137.581C92.7396 130.68 89.1 128.617 89.1 128.617C91.9512 125.199 94.149 100.197 94.149 100.197C94.149 100.197 103.086 89.694 102.249 78.705C101.98 74.7005 101.027 70.7718 99.4302 67.0896C100.888 67.824 102.341 69.2982 103.513 72.0306C106.261 78.4512 102.4 96.6006 99.117 101.05Z" fill="#FFDA44"/>
<path d="M59.2704 174.355C64.6704 166.855 67.2408 152.08 65.8368 140.125C64.4328 128.169 68.8824 125.177 72.6354 120.458C76.3884 115.738 84.8232 97.9236 84.8232 93.7008C84.8232 89.478 95.3748 79.1694 93.0312 67.446C93.0312 67.446 99.765 63.2718 103.513 72.0306C106.261 78.4566 102.4 96.6006 99.117 101.056L92.799 127.229C92.799 127.229 99.5436 138.866 100.813 158.35C101.623 170.797 95.8554 184.664 95.8554 184.664" stroke="#263238" stroke-linecap="round" stroke-linejoin="round"/>
<path d="M80.0928 194.621C80.0928 194.621 87.183 198.985 91.3194 205.886" stroke="#263238" stroke-linecap="round" stroke-linejoin="round"/>
<path d="M100.008 202.878C100.008 202.878 93.9006 203.747 88.3818 197.143C84.8448 192.915 74.1042 191.003 71.6418 179.944" stroke="#263238" stroke-linecap="round" stroke-linejoin="round"/>
<path opacity="0.2" d="M188.773 235.58C173.14 228.101 182.606 222.107 161.098 212.825C139.59 203.542 139.374 195.61 141.966 177.368C144.558 159.127 142.506 139.725 148.759 138.078C155.012 136.431 143.867 111.272 151.157 102.379L187.034 172.168L188.773 235.58Z" fill="black" fill-opacity="0.7"/>
<path d="M247.023 234.851C246.289 232.751 245.543 230.456 244.966 228.371C244.22 225.671 243.637 223.511 242.266 221C242.05 220.601 241.817 220.18 241.558 219.726C240.095 217.118 238.091 213.548 236.92 209.164C236.131 206.21 236.92 198.936 237.654 191.884C238.194 186.818 238.685 182.039 238.54 179.329L238.496 178.367C238.129 171.277 237.362 156.524 235.796 152.447C234.257 148.516 232.821 147.928 230.202 146.88C229.932 146.761 229.662 146.653 229.349 146.524C228.366 146.113 226.692 145.249 224.764 144.25C220.417 141.998 215.006 139.196 212.258 138.85C209.687 138.561 207.086 138.682 204.552 139.207C201.166 136.609 195.404 133.267 193.687 133.196C192.283 133.126 189.216 134.006 187.747 134.465L187.007 134.703C186.077 133.982 185.091 133.335 184.059 132.77C183.989 132.732 183.919 132.705 183.859 132.678C181.953 131.895 179.075 131.868 177.503 131.911C177.028 131.911 176.656 131.96 176.488 131.976C173.524 127.413 170.608 122.872 169.339 120.879C166.693 116.689 158.501 99.4464 158.42 99.279C158.41 99.2568 158.396 99.2373 158.377 99.2222C158.358 99.2071 158.336 99.197 158.312 99.1926C158.287 99.1891 158.261 99.1891 158.236 99.1926C157.599 99.009 152.906 97.8156 151.022 102.362C148.959 107.314 151.902 118.184 154.775 122.132C156.157 124.033 159.932 131.787 163.76 139.811C162.778 140.724 154.915 147.987 151.097 149.342C147.971 150.449 148.705 166.477 149.294 179.345C149.515 184.097 149.699 188.185 149.645 190.642C149.537 195.394 158.182 201.938 166.563 208.267C174.123 214.002 181.964 219.926 182.882 224.23C183.136 225.439 183.859 226.422 184.723 227.529C186.165 229.365 188.023 231.53 188.811 235.629C189.043 236.86 191.02 238.469 192.591 241.099H249.313C248.837 239.819 247.941 237.487 247.023 234.851ZM168.361 149.477C171.11 155.234 172.811 158.657 173.221 159.041C173.632 159.424 173.605 161.249 173.594 163.026C173.535 164.581 173.589 166.139 173.756 167.686C173.086 168.275 168.858 172.125 168.005 175.246L164.414 171.018L163.507 157.75C164.047 157.178 167.74 153.274 168.361 149.477Z" fill="white"/>
<path opacity="0.4" d="M230.747 186.467C232.081 198.914 232.097 205.664 233.593 209.266C236.12 215.347 239.841 216.578 239.841 216.578C238.604 214.221 237.621 211.739 236.909 209.174C236.126 206.221 236.909 198.947 237.643 191.894C238.183 186.829 238.68 182.045 238.54 179.334L238.491 178.373C238.124 171.288 237.357 156.535 235.791 152.453C234.257 148.522 232.816 147.933 230.197 146.88C229.927 146.767 229.657 146.659 229.343 146.529C228.361 146.119 226.692 145.255 224.759 144.256C220.412 142.004 215.001 139.201 212.252 138.856C209.681 138.563 207.08 138.684 204.547 139.212C201.161 136.615 195.399 133.272 193.682 133.202C192.278 133.132 188.471 134.239 186.991 134.708C193.471 139.995 202.802 146.588 202.802 146.588C210.184 148.057 209.239 151.259 212.225 153.068C214.925 154.688 217.507 149.947 219.785 149.531C222.766 148.991 226.152 152.134 226.001 155.947C225.536 166.45 229.603 175.781 230.747 186.467Z" fill="#FFDA44"/>
<path opacity="0.4" d="M193.433 147.895C193.433 147.895 187.585 143.035 184.793 141.415C182.002 139.795 181.553 134.212 183.757 132.856C183.84 132.806 183.935 132.776 184.032 132.77L183.832 132.678C181.926 131.895 179.048 131.863 177.476 131.911C180.716 137.943 183.303 142.571 184 143.586C186.349 146.977 193.433 147.895 193.433 147.895Z" fill="#FFDA44"/>
<path opacity="0.4" d="M184.561 223.474C184.81 222.183 182.682 218.403 181.748 216.869C179.626 213.37 154.985 191.597 158.555 185.787C162.124 179.977 165.386 184.275 167.643 184.653C169.263 184.923 173.713 182.272 173.691 182.05C173.183 177.574 177.314 174.663 177.314 174.663C177.314 174.663 176.936 156.843 175.986 157.145C175.036 157.448 163.663 130.388 163.663 130.388C163.663 130.388 151.643 114.404 152.323 106.947C153.004 99.4896 158.22 99.36 158.22 99.36V99.1602C157.583 98.9766 152.89 97.7832 151.006 102.33C148.943 107.282 151.886 118.152 154.759 122.099C156.141 124 159.916 131.755 163.744 139.779C162.761 140.692 154.899 147.955 151.081 149.31C147.955 150.417 148.689 166.444 149.278 179.312C149.499 184.064 149.683 188.152 149.629 190.609C149.521 195.361 158.166 201.906 166.547 208.235C174.107 213.97 181.948 219.893 182.866 224.197C183.119 225.407 183.843 226.39 184.707 227.497C184.535 226.163 184.486 224.816 184.561 223.474ZM168.361 149.494C171.11 155.25 172.811 158.674 173.221 159.057C173.632 159.44 173.605 161.266 173.594 163.042C173.535 164.597 173.589 166.155 173.756 167.702C173.086 168.291 168.858 172.141 168.005 175.262L164.414 171.034L163.507 157.766C164.047 157.178 167.74 153.274 168.361 149.477V149.494Z" fill="#FFDA44"/>
<path d="M190.08 147.825C187.667 147.066 185.547 145.58 184.01 143.57C181.543 140.265 171.85 125.21 169.166 120.965C166.482 116.721 158.22 99.36 158.22 99.36C158.22 99.36 153.144 97.659 151.168 102.4C149.191 107.141 151.897 117.855 154.904 121.981C157.912 126.106 172.206 157.874 173.34 158.9C174.474 159.926 172.773 168.404 175.046 170.456" stroke="#263238" stroke-linecap="round" stroke-linejoin="round"/>
<path d="M173.956 167.762C173.956 167.762 168.718 172.325 168.102 175.657L164.214 171.083L163.296 157.68C163.296 157.68 167.989 152.982 168.248 148.802" stroke="#263238" stroke-linecap="round" stroke-linejoin="round"/>
<path d="M163.96 139.795C163.96 139.795 155.261 148.003 151.124 149.467C146.988 150.93 150.007 181.683 149.801 190.588C149.596 199.492 181.094 215.006 183.028 224.122C183.794 227.75 186.97 228.49 188.908 235.462" stroke="#263238" stroke-linecap="round" stroke-linejoin="round"/>
<path d="M176.342 132.154C176.342 132.154 181.078 131.728 183.746 132.84C186.413 133.952 197.246 143.257 199.859 145.033C202.473 146.81 206.404 147.485 207.149 149.402" stroke="#263238" stroke-linecap="round" stroke-linejoin="round"/>
<path d="M186.932 134.897C186.932 134.897 191.792 133.277 193.649 133.369C195.507 133.461 202.495 137.581 205.627 140.335C208.026 142.464 210.79 144.144 213.786 145.292" stroke="#263238" stroke-linecap="round" stroke-linejoin="round"/>
<path d="M204.487 139.401C207.023 138.855 209.632 138.729 212.209 139.028C216.162 139.568 226.087 145.4 229.252 146.718C232.416 148.036 233.928 148.279 235.591 152.534C237.254 156.789 238.016 172.967 238.351 179.361C238.685 185.755 235.354 204.066 236.731 209.218C238.108 214.369 240.592 218.344 242.098 221.098" stroke="#263238" stroke-linecap="round" stroke-linejoin="round"/>
<path d="M163.296 157.68C163.296 157.68 162.54 154.521 161.46 154.116" stroke="#263238" stroke-linecap="round" stroke-linejoin="round"/>
<path d="M164.214 171.083C164.578 172.924 165.071 174.737 165.688 176.51C166.466 178.427 165.256 181.202 165.256 181.202" stroke="#263238" stroke-linecap="round" stroke-linejoin="round"/>
<path d="M168.102 175.657C167.978 178.724 171.029 182.309 171.769 181.802" stroke="#263238" stroke-linecap="round" stroke-linejoin="round"/>
<path d="M183.638 157.68C183.638 157.68 186.916 152.377 190.058 152.118C193.201 151.859 196.83 156.319 198.769 155.898C200.707 155.477 203.148 152.626 206.41 152.118C209.671 151.61 211.199 153.166 213.786 153.295C216.373 153.425 216.637 149.969 219.726 149.515C222.815 149.062 223.868 150.595 225.941 150.995C228.015 151.394 228.533 149.758 230.213 148.835" stroke="#263238" stroke-linecap="round" stroke-linejoin="round"/>
</svg>
